<svg width="500" height="200" viewBox="0 0 500 200" fill="none" xmlns="http://www.w3.org/2000/svg">
<path d="M47.56 101.08C47.72 101.4 48 101.8 48.4 102.28C49.68 103.88 50.88 105.48 52 107.08C53.2 108.6 54.2 110.24 55 112C55.88 113.68 56.48 115.56 56.8 117.64C57.12 119.72 57.04 122.04 56.56 124.6C55.92 128.36 54.68 131.44 52.84 133.84C51.08 136.16 48.92 137.96 46.36 139.24C43.8 140.52 40.96 141.4 37.84 141.88C34.72 142.28 31.48 142.48 28.12 142.48C24.84 142.56 21.52 142.48 18.16 142.24C14.88 142 11.8 141.84 8.92 141.76C8.44 141.76 7.96 141.76 7.48 141.76C7.08 141.76 6.68 141.68 6.28 141.52C5.8 127.68 5.68 113.96 5.92 100.36C6.16 86.68 6.16 72.88 5.92 58.96L6.04 58.84C9.24 57.96 12.64 57.28 16.24 56.8C19.84 56.32 23.4 56.16 26.92 56.32C30.44 56.48 33.8 57 37 57.88C40.28 58.76 43.16 60.2 45.64 62.2C48.12 64.12 50.08 66.64 51.52 69.76C52.96 72.8 53.68 76.56 53.68 81.04C53.68 84.4 53.08 87.68 51.88 90.88C50.76 94.08 49.4 97.04 47.8 99.76C47.48 100.32 47.4 100.76 47.56 101.08ZM34.24 124.36C35.36 123.88 36.32 123.16 37.12 122.2C38 121 38.4 119.56 38.32 117.88C38.32 116.2 38.04 114.68 37.48 113.32C37 112.36 36.28 111.52 35.32 110.8C34.36 110 33.36 109.48 32.32 109.24C30.8 108.84 29.24 108.64 27.64 108.64C26.04 108.56 24.48 108.44 22.96 108.28C22.64 109.48 22.36 110.84 22.12 112.36C21.88 113.88 21.72 115.44 21.64 117.04C21.64 118.56 21.76 120.04 22 121.48C22.24 122.92 22.68 124.12 23.32 125.08L23.56 125.2C24.68 125.2 25.84 125.24 27.04 125.32C28.32 125.32 29.56 125.28 30.76 125.2C32.04 125.04 33.2 124.76 34.24 124.36ZM34.36 90.76C35.48 90.12 36.36 89.2 37 88C37.56 87.04 38.04 85.92 38.44 84.64C38.84 83.36 38.72 82.08 38.08 80.8C37.44 79.52 36.6 78.56 35.56 77.92C34.6 77.2 33.48 76.68 32.2 76.36C30.6 76.04 28.88 75.88 27.04 75.88C25.28 75.8 23.8 76.08 22.6 76.72C22.76 78.56 22.68 80.8 22.36 83.44C22.12 86.08 22.36 88.8 23.08 91.6C24.28 91.76 25.56 91.88 26.92 91.96C28.28 92.04 29.6 92 30.88 91.84C32.16 91.68 33.32 91.32 34.36 90.76ZM73.6675 57.64C75.5875 57.72 78.3475 57.72 81.9475 57.64H84.8275V58.12C84.8275 65 84.7075 71.92 84.4675 78.88C84.3075 85.84 84.1475 92.84 83.9875 99.88C83.9075 106.84 83.9075 113.8 83.9875 120.76C84.0675 127.72 84.3075 134.6 84.7075 141.4C84.0675 142.04 82.7075 142.4 80.6275 142.48C78.6275 142.64 76.4275 142.68 74.0275 142.6C71.7075 142.52 69.4675 142.4 67.3075 142.24C65.1475 142.16 63.6675 142.24 62.8675 142.48C63.4275 135.28 63.6675 128.04 63.5875 120.76C63.5075 113.48 63.3475 106.28 63.1075 99.16C62.9475 91.96 62.8275 84.88 62.7475 77.92C62.7475 70.88 63.1075 64 63.8275 57.28V57.04C64.2275 56.96 64.9875 57 66.1075 57.16C67.3075 57.24 68.1875 57.28 68.7475 57.28C70.1875 57.36 71.8275 57.48 73.6675 57.64ZM129.079 125.56C134.199 125.8 139.479 125.84 144.919 125.68V125.92C145.079 128.48 145.119 131.16 145.039 133.96C144.959 136.68 144.599 139.24 143.959 141.64C135.799 141.56 127.479 141.68 118.999 142C110.599 142.24 102.519 142.04 94.7594 141.4C94.7594 134.44 94.6794 127.56 94.5194 120.76C94.3594 113.88 94.2394 107.04 94.1594 100.24C94.0794 93.44 94.0794 86.64 94.1594 79.84C94.2394 73.04 94.4794 66.2 94.8794 59.32C97.9994 59.16 101.359 59.04 104.959 58.96C108.639 58.8 112.319 58.68 115.999 58.6C119.679 58.52 123.239 58.44 126.679 58.36C130.119 58.28 133.159 58.24 135.799 58.24C138.439 58.24 140.559 58.28 142.159 58.36C143.759 58.44 144.559 58.52 144.559 58.6C144.959 61.4 145.039 64.24 144.799 67.12C144.639 70 144.559 72.84 144.559 75.64V75.76C141.999 76.32 139.399 76.68 136.759 76.84C134.199 76.92 131.599 76.96 128.959 76.96C126.319 76.88 123.679 76.84 121.039 76.84C118.399 76.84 115.759 76.96 113.119 77.2H112.759L112.639 77.32C112.719 79.64 112.599 82.04 112.279 84.52C112.039 86.92 112.199 89.2 112.759 91.36L112.879 91.48C115.279 91.64 117.719 91.72 120.199 91.72C122.679 91.72 125.159 91.76 127.639 91.84V91.96C128.039 94.68 128.159 97.4 127.999 100.12C127.839 102.84 127.799 105.68 127.879 108.64C126.679 108.96 125.319 109.16 123.799 109.24C122.279 109.24 120.799 109.24 119.359 109.24C117.999 109.24 116.759 109.28 115.639 109.36C114.519 109.44 113.759 109.64 113.359 109.96C112.959 112.28 112.799 114.88 112.879 117.76C113.039 120.64 113.199 123.04 113.359 124.96L113.479 125.08C118.759 125.08 123.959 125.24 129.079 125.56ZM201.253 70.24C203.333 74.16 203.813 79.12 202.693 85.12H202.573C199.773 85.6 196.773 85.92 193.573 86.08C190.373 86.16 187.373 85.8 184.573 85C185.053 82.84 184.613 81.04 183.253 79.6C181.893 78.16 180.253 77.24 178.333 76.84C176.413 76.44 174.533 76.64 172.693 77.44C170.933 78.24 169.893 79.76 169.573 82C169.413 82.56 169.333 83.12 169.333 83.68C169.413 84.16 169.493 84.68 169.573 85.24C170.213 87.16 171.253 88.44 172.693 89.08C174.133 89.72 175.693 90.16 177.373 90.4C181.613 90.88 185.533 92.24 189.133 94.48C192.813 96.72 195.813 99.56 198.133 103C199.573 104.84 200.653 106.84 201.373 109C202.093 111.08 202.493 113.24 202.573 115.48C202.733 117.72 202.573 120 202.093 122.32C201.693 124.56 201.013 126.72 200.053 128.8C199.093 131.28 197.813 133.4 196.213 135.16C194.613 136.92 192.773 138.36 190.693 139.48C188.693 140.6 186.493 141.44 184.093 142C181.773 142.48 179.373 142.68 176.893 142.6C173.373 142.52 169.853 141.92 166.333 140.8C162.893 139.6 159.813 137.96 157.093 135.88C154.373 133.8 152.213 131.28 150.613 128.32C149.013 125.28 148.333 121.84 148.573 118V117.64V117.28C151.373 116.88 154.453 116.8 157.813 117.04C161.173 117.2 164.213 117.24 166.933 117.16C167.093 119.72 168.093 121.64 169.933 122.92C171.853 124.2 173.853 124.84 175.933 124.84C178.093 124.76 179.933 124.04 181.453 122.68C183.053 121.32 183.613 119.24 183.133 116.44C182.893 114.52 182.173 113 180.973 111.88C179.773 110.68 178.333 109.72 176.653 109C175.053 108.28 173.293 107.76 171.373 107.44C169.453 107.04 167.653 106.68 165.973 106.36C164.373 106.04 162.893 105.52 161.533 104.8C160.173 104.08 158.933 103.24 157.813 102.28C154.133 98.76 151.733 94.88 150.613 90.64C149.573 86.4 149.533 82.28 150.493 78.28C151.453 74.28 153.253 70.64 155.893 67.36C158.613 64.08 161.893 61.64 165.733 60.04C167.653 59.24 169.773 58.72 172.093 58.48C174.413 58.16 176.733 58.08 179.053 58.24C181.453 58.32 183.773 58.64 186.013 59.2C188.333 59.76 190.453 60.48 192.373 61.36C196.213 63.36 199.173 66.32 201.253 70.24ZM251.935 101.08C252.095 101.4 252.375 101.8 252.775 102.28C254.055 103.88 255.255 105.48 256.375 107.08C257.575 108.6 258.575 110.24 259.375 112C260.255 113.68 260.855 115.56 261.175 117.64C261.495 119.72 261.415 122.04 260.935 124.6C260.295 128.36 259.055 131.44 257.215 133.84C255.455 136.16 253.295 137.96 250.735 139.24C248.175 140.52 245.335 141.4 242.215 141.88C239.095 142.28 235.855 142.48 232.495 142.48C229.215 142.56 225.895 142.48 222.535 142.24C219.255 142 216.175 141.84 213.295 141.76C212.815 141.76 212.335 141.76 211.855 141.76C211.455 141.76 211.055 141.68 210.655 141.52C210.175 127.68 210.055 113.96 210.295 100.36C210.535 86.68 210.535 72.88 210.295 58.96L210.415 58.84C213.615 57.96 217.015 57.28 220.615 56.8C224.215 56.32 227.775 56.16 231.295 56.32C234.815 56.48 238.175 57 241.375 57.88C244.655 58.76 247.535 60.2 250.015 62.2C252.495 64.12 254.455 66.64 255.895 69.76C257.335 72.8 258.055 76.56 258.055 81.04C258.055 84.4 257.455 87.68 256.255 90.88C255.135 94.08 253.775 97.04 252.175 99.76C251.855 100.32 251.775 100.76 251.935 101.08ZM238.615 124.36C239.735 123.88 240.695 123.16 241.495 122.2C242.375 121 242.775 119.56 242.695 117.88C242.695 116.2 242.415 114.68 241.855 113.32C241.375 112.36 240.655 111.52 239.695 110.8C238.735 110 237.735 109.48 236.695 109.24C235.175 108.84 233.615 108.64 232.015 108.64C230.415 108.56 228.855 108.44 227.335 108.28C227.015 109.48 226.735 110.84 226.495 112.36C226.255 113.88 226.095 115.44 226.015 117.04C226.015 118.56 226.135 120.04 226.375 121.48C226.615 122.92 227.055 124.12 227.695 125.08L227.935 125.2C229.055 125.2 230.215 125.24 231.415 125.32C232.695 125.32 233.935 125.28 235.135 125.2C236.415 125.04 237.575 124.76 238.615 124.36ZM238.735 90.76C239.855 90.12 240.735 89.2 241.375 88C241.935 87.04 242.415 85.92 242.815 84.64C243.215 83.36 243.095 82.08 242.455 80.8C241.815 79.52 240.975 78.56 239.935 77.92C238.975 77.2 237.855 76.68 236.575 76.36C234.975 76.04 233.255 75.88 231.415 75.88C229.655 75.8 228.175 76.08 226.975 76.72C227.135 78.56 227.055 80.8 226.735 83.44C226.495 86.08 226.735 88.8 227.455 91.6C228.655 91.76 229.935 91.88 231.295 91.96C232.655 92.04 233.975 92 235.255 91.84C236.535 91.68 237.695 91.32 238.735 90.76ZM310.083 63.64C312.403 65.72 314.043 68.16 315.003 70.96C315.563 72.16 315.963 73.4 316.203 74.68C316.523 75.88 316.763 77.12 316.923 78.4C317.083 80.4 317.163 82.4 317.163 84.4C317.243 86.32 317.243 88.28 317.163 90.28C316.923 94.52 316.843 98.64 316.923 102.64C317.003 106.64 316.883 110.72 316.563 114.88L316.203 118.84C316.043 121.64 315.603 124.48 314.883 127.36C314.163 130.16 313.083 132.72 311.643 135.04C310.283 136.96 308.483 138.52 306.243 139.72C304.083 140.84 301.763 141.72 299.283 142.36C297.043 143 294.763 143.4 292.443 143.56C290.203 143.72 287.923 143.72 285.603 143.56C283.923 143.4 282.283 143.16 280.683 142.84C279.163 142.6 277.683 142.16 276.243 141.52C274.883 140.88 273.643 140.08 272.523 139.12C271.403 138.08 270.483 136.76 269.763 135.16C268.643 133.16 267.883 131.04 267.483 128.8C267.163 126.48 266.963 124.16 266.883 121.84C266.643 115.6 266.363 109.36 266.043 103.12C265.803 96.8 265.883 90.48 266.283 84.16C266.363 80.56 266.803 76.96 267.603 73.36C268.483 69.68 270.163 66.44 272.643 63.64C273.443 62.84 274.363 62.12 275.403 61.48C278.043 60.2 280.883 59.28 283.923 58.72C287.043 58.08 290.123 57.84 293.163 58C296.283 58.16 299.283 58.72 302.163 59.68C305.123 60.56 307.763 61.88 310.083 63.64ZM302.163 106V100.24L301.923 92.08C301.923 92 301.843 91.2 301.683 89.68C301.603 88.08 301.523 86.6 301.443 85.24C301.283 83 300.643 80.96 299.523 79.12C298.483 77.28 297.043 75.92 295.203 75.04C293.603 74.4 291.963 74.28 290.283 74.68C288.603 75.08 287.123 75.76 285.843 76.72C283.043 78.88 281.163 81.64 280.202 85C279.563 88.04 279.163 91.24 279.003 94.6C278.923 97.96 278.963 101.32 279.123 104.68C279.523 107.48 279.803 110.36 279.963 113.32C280.123 116.2 280.603 118.96 281.403 121.6C282.203 123.2 283.363 124.44 284.883 125.32C286.403 126.2 288.043 126.72 289.803 126.88C291.563 126.96 293.323 126.72 295.083 126.16C296.843 125.52 298.323 124.52 299.523 123.16C300.243 122.2 300.763 121.44 301.083 120.88C301.403 120.24 301.603 119.56 301.683 118.84C301.763 118.12 301.763 117.28 301.683 116.32C301.683 115.28 301.763 113.92 301.923 112.24C302.003 110.64 302.043 109.24 302.043 108.04C302.123 106.84 302.163 106.16 302.163 106ZM374.69 70.24C376.77 74.16 377.25 79.12 376.13 85.12H376.01C373.21 85.6 370.21 85.92 367.01 86.08C363.81 86.16 360.81 85.8 358.01 85C358.49 82.84 358.05 81.04 356.69 79.6C355.33 78.16 353.69 77.24 351.77 76.84C349.85 76.44 347.97 76.64 346.13 77.44C344.37 78.24 343.33 79.76 343.01 82C342.85 82.56 342.77 83.12 342.77 83.68C342.85 84.16 342.93 84.68 343.01 85.24C343.65 87.16 344.69 88.44 346.13 89.08C347.57 89.72 349.13 90.16 350.81 90.4C355.05 90.88 358.97 92.24 362.57 94.48C366.25 96.72 369.25 99.56 371.57 103C373.01 104.84 374.09 106.84 374.81 109C375.53 111.08 375.93 113.24 376.01 115.48C376.17 117.72 376.01 120 375.53 122.32C375.13 124.56 374.45 126.72 373.49 128.8C372.53 131.28 371.25 133.4 369.65 135.16C368.05 136.92 366.21 138.36 364.13 139.48C362.13 140.6 359.93 141.44 357.53 142C355.21 142.48 352.81 142.68 350.33 142.6C346.81 142.52 343.29 141.92 339.77 140.8C336.33 139.6 333.25 137.96 330.53 135.88C327.81 133.8 325.65 131.28 324.05 128.32C322.45 125.28 321.77 121.84 322.01 118V117.64V117.28C324.81 116.88 327.89 116.8 331.25 117.04C334.61 117.2 337.65 117.24 340.37 117.16C340.53 119.72 341.53 121.64 343.37 122.92C345.29 124.2 347.29 124.84 349.37 124.84C351.53 124.76 353.37 124.04 354.89 122.68C356.49 121.32 357.05 119.24 356.57 116.44C356.33 114.52 355.61 113 354.41 111.88C353.21 110.68 351.77 109.72 350.09 109C348.49 108.28 346.73 107.76 344.81 107.44C342.89 107.04 341.09 106.68 339.41 106.36C337.81 106.04 336.33 105.52 334.97 104.8C333.61 104.08 332.37 103.24 331.25 102.28C327.57 98.76 325.17 94.88 324.05 90.64C323.01 86.4 322.97 82.28 323.93 78.28C324.89 74.28 326.69 70.64 329.33 67.36C332.05 64.08 335.33 61.64 339.17 60.04C341.09 59.24 343.21 58.72 345.53 58.48C347.85 58.16 350.17 58.08 352.49 58.24C354.89 58.32 357.21 58.64 359.45 59.2C361.77 59.76 363.89 60.48 365.81 61.36C369.65 63.36 372.61 66.32 374.69 70.24ZM404.613 75.64C403.493 75.88 402.613 76.32 401.973 76.96C401.813 77.12 401.653 77.4 401.493 77.8C401.413 78.12 401.333 78.36 401.253 78.52C401.093 78.76 400.933 80.16 400.773 82.72C400.693 85.28 400.613 88.32 400.533 91.84C400.453 95.36 400.413 99.04 400.413 102.88C400.413 106.64 400.533 109.92 400.773 112.72C401.013 115.04 401.613 117.32 402.573 119.56C403.613 121.72 405.293 123.12 407.613 123.76C409.373 123.92 411.013 123.68 412.533 123.04C414.133 122.32 415.333 121.16 416.133 119.56C417.013 117.72 417.373 115.8 417.213 113.8C417.133 111.72 417.293 109.68 417.693 107.68C418.813 107.84 420.053 107.88 421.413 107.8C422.853 107.72 424.293 107.68 425.733 107.68C427.173 107.68 428.573 107.72 429.933 107.8C431.373 107.88 432.653 108.08 433.773 108.4C435.133 112.56 435.493 116.72 434.853 120.88C434.213 124.96 432.813 128.64 430.653 131.92C428.493 135.2 425.653 137.92 422.133 140.08C418.693 142.16 414.773 143.24 410.373 143.32C407.493 143.72 404.533 143.72 401.493 143.32C398.453 143 395.613 142.24 392.973 141.04C390.333 139.76 388.093 138 386.253 135.76C384.493 133.52 383.453 130.72 383.133 127.36C382.973 124.48 382.853 121.48 382.772 118.36C382.693 115.24 382.613 111.76 382.533 107.92C382.533 104 382.533 99.6 382.533 94.72C382.613 89.76 382.693 84.04 382.772 77.56C382.613 76.2 382.653 74.84 382.893 73.48C383.213 72.04 383.613 70.72 384.093 69.52C384.813 67.44 385.693 65.52 386.732 63.76C387.853 62 389.173 60.44 390.693 59.08C391.573 58.44 392.533 57.92 393.573 57.52C394.613 57.04 395.693 56.64 396.813 56.32C400.493 55.12 404.133 54.64 407.733 54.88C411.333 55.12 414.693 55.96 417.813 57.4C421.013 58.76 423.893 60.6 426.453 62.92C429.013 65.24 431.053 67.92 432.573 70.96C434.093 73.92 435.013 77.16 435.333 80.68C435.653 84.2 435.173 87.8 433.893 91.48C430.933 92.12 428.013 92.36 425.133 92.2C422.333 91.96 419.413 91.56 416.373 91C416.133 89.48 415.973 87.76 415.893 85.84C415.893 83.92 415.693 82.16 415.293 80.56C414.893 78.88 414.133 77.52 413.013 76.48C411.973 75.44 410.293 74.96 407.973 75.04C406.933 75.2 405.813 75.4 404.613 75.64ZM486.366 57.16C487.886 57.16 489.246 57.2 490.446 57.28L493.686 141.28C492.326 141.52 490.846 141.68 489.246 141.76C487.726 141.84 486.206 141.88 484.686 141.88C483.246 141.88 481.806 141.88 480.366 141.88C479.006 141.88 477.846 141.92 476.886 142H476.766C476.366 139.36 476.086 136.64 475.926 133.84C475.846 130.96 475.766 128.12 475.686 125.32C475.686 122.52 475.646 119.72 475.566 116.92C475.486 114.12 475.286 111.44 474.966 108.88L474.846 108.76C472.526 108.36 470.206 108.16 467.886 108.16C465.566 108.16 463.246 108.44 460.926 109C460.686 111.8 460.566 114.56 460.566 117.28C460.646 120 460.726 122.72 460.806 125.44C460.886 128.16 460.886 130.84 460.806 133.48C460.806 136.04 460.606 138.6 460.206 141.16C459.246 141.72 457.966 142 456.366 142C454.766 142 453.166 141.92 451.566 141.76C449.966 141.6 448.446 141.48 447.006 141.4C445.646 141.32 444.606 141.48 443.886 141.88C443.726 139.64 443.526 136.6 443.286 132.76C443.126 128.84 442.966 124.48 442.806 119.68C442.646 114.8 442.486 109.64 442.326 104.2C442.246 98.76 442.166 93.32 442.086 87.88C442.006 82.36 441.966 77.08 441.966 72.04C442.046 66.92 442.126 62.32 442.206 58.24V58.12H442.326H442.566C443.766 58.36 445.006 58.44 446.286 58.36C447.646 58.28 448.966 58.2 450.246 58.12C451.606 58.04 452.926 58 454.206 58C455.486 58 456.686 58.16 457.806 58.48C458.526 64 458.886 69.36 458.886 74.56C458.886 79.76 459.366 84.92 460.326 90.04H460.446C462.446 90.52 464.606 90.68 466.926 90.52C469.246 90.28 471.406 90.08 473.406 89.92H473.526C474.006 84.4 474.246 79.24 474.246 74.44C474.326 69.64 474.246 64.36 474.006 58.6C474.966 58.28 476.126 58 477.486 57.76C478.926 57.52 480.406 57.36 481.926 57.28C483.446 57.12 484.926 57.08 486.366 57.16Z" fill="#F1F1F1"/>
<path d="M13.32 178.56C13.0267 178.72 12.24 179.253 10.96 180.16C9.68 181.04 8.6 181.667 7.72 182.04C6.84 182.413 5.88 182.627 4.84 182.68C4.06667 182.707 3.52 182.493 3.2 182.04C2.88 181.587 2.78667 180.947 2.92 180.12C3.05333 179.24 3.33333 178.453 3.76 177.76C4.21333 177.067 4.69333 176.507 5.2 176.08C5.73333 175.627 6.44 175.213 7.32 174.84C8.2 174.44 8.97333 174.133 9.64 173.92C10.3333 173.707 11.2533 173.467 12.4 173.2C12.64 173.2 12.9467 172.92 13.32 172.36C13.6933 171.8 14.0133 171.547 14.28 171.6C14.5733 171.653 14.8267 171.813 15.04 172.08C15.2533 172.32 15.4133 172.587 15.52 172.88C15.6533 173.147 15.7467 173.533 15.8 174.04C15.8533 174.547 15.88 174.947 15.88 175.24C15.88 175.533 15.88 175.96 15.88 176.52C15.88 176.6 15.88 176.653 15.88 176.68C15.88 177.613 15.8133 179.213 15.68 181.48C15.5733 183.72 15.5733 185.413 15.68 186.56C15.7067 187.2 15.6533 187.773 15.52 188.28C15.4133 188.787 15.24 189.213 15 189.56C14.7867 189.933 14.4667 190.24 14.04 190.48C13.6133 190.72 13.1867 190.907 12.76 191.04C12.3333 191.173 11.8 191.28 11.16 191.36C10.5467 191.44 9.98667 191.48 9.48 191.48C9 191.507 8.4 191.52 7.68 191.52C6.21333 191.52 5.01333 191.347 4.08 191C3.17333 190.68 2.61333 190.053 2.4 189.12C2.42667 188.667 2.73333 188.24 3.32 187.84C3.90667 187.44 4.54667 187.12 5.24 186.88C5.96 186.667 6.66667 186.507 7.36 186.4L5.12 188.64C6.29333 189.147 7.54667 189.36 8.88 189.28C10.24 189.227 11.4133 188.907 12.4 188.32C13.0667 187.92 13.5067 187.08 13.72 185.8C13.9333 184.52 13.9867 183.28 13.88 182.08C13.7733 180.88 13.5867 179.707 13.32 178.56ZM4.48 180.44C5.70667 180.627 6.97333 180.507 8.28 180.08C9.58667 179.627 10.7067 178.973 11.64 178.12C12.5733 177.24 13.1333 176.333 13.32 175.4C11.48 174.973 9.62667 175.32 7.76 176.44C5.92 177.533 4.82667 178.867 4.48 180.44ZM20.6584 182.96C19.8584 182.853 19.2184 182.453 18.7384 181.76C18.2851 181.04 18.0184 180.16 17.9384 179.12C17.8851 178.08 17.8984 177.067 17.9784 176.08C18.0584 175.093 18.2184 174.133 18.4584 173.2C18.4584 173.04 18.5251 172.213 18.6584 170.72C18.8184 169.2 19.2718 168.44 20.0184 168.44C20.2318 168.44 20.4184 168.467 20.5784 168.52C20.7384 168.573 20.8584 168.667 20.9384 168.8C21.0451 168.933 21.1251 169.053 21.1784 169.16C21.2584 169.267 21.2984 169.427 21.2984 169.64C21.2984 169.827 21.2984 169.987 21.2984 170.12C21.3251 170.253 21.3118 170.453 21.2584 170.72C21.2318 170.96 21.2051 171.133 21.1784 171.24C21.1784 171.347 21.1518 171.533 21.0984 171.8C21.0451 172.04 21.0051 172.187 20.9784 172.24C21.6184 172.4 22.7784 172.427 24.4584 172.32C26.1651 172.213 27.3251 172.28 27.9384 172.52C28.5251 172.707 29.0451 173.027 29.4984 173.48C29.0984 173.747 28.4184 173.973 27.4584 174.16C26.4984 174.32 25.5918 174.44 24.7384 174.52C23.8851 174.573 23.0851 174.76 22.3384 175.08C21.5918 175.4 21.1518 175.853 21.0184 176.44C20.8851 177.053 20.8184 178.147 20.8184 179.72C20.8184 181.293 20.7651 182.373 20.6584 182.96ZM32.0797 182.2C31.1997 182.787 30.4797 182.933 29.9197 182.64C29.3597 182.32 29.0797 181.56 29.0797 180.36C29.0797 178.813 29.9864 176.907 31.7997 174.64C33.613 172.347 35.2264 170.8 36.6397 170C37.3864 169.6 37.893 169.373 38.1597 169.32C38.4264 169.24 38.973 169.267 39.7997 169.4C41.453 169.613 42.253 170.72 42.1997 172.72C42.1464 173.787 41.8797 174.8 41.3997 175.76C40.9197 176.693 40.2664 177.507 39.4397 178.2C38.613 178.893 37.733 179.507 36.7997 180.04C35.893 180.547 34.893 181 33.7997 181.4C33.7997 181.4 33.7064 181.44 33.5197 181.52C33.3597 181.573 33.1464 181.667 32.8797 181.8C32.6397 181.907 32.373 182.04 32.0797 182.2ZM30.9597 180.12C32.0797 180.2 33.3997 179.867 34.9197 179.12C36.4664 178.373 37.7997 177.4 38.9197 176.2C40.0397 175 40.5464 173.88 40.4397 172.84C40.3864 172.36 40.293 172.013 40.1597 171.8C40.053 171.56 39.8264 171.44 39.4797 171.44C39.1064 171.44 38.6797 171.573 38.1997 171.84C37.7464 172.107 37.1864 172.48 36.5197 172.96C35.853 173.44 35.4664 173.72 35.3597 173.8C34.5864 174.307 33.733 175.24 32.7997 176.6C31.8664 177.933 31.253 179.107 30.9597 180.12ZM45.5953 182.2C44.7153 182.787 43.9953 182.933 43.4353 182.64C42.8753 182.32 42.5953 181.56 42.5953 180.36C42.5953 178.813 43.502 176.907 45.3153 174.64C47.1286 172.347 48.742 170.8 50.1553 170C50.902 169.6 51.4086 169.373 51.6753 169.32C51.942 169.24 52.4886 169.267 53.3153 169.4C54.9686 169.613 55.7686 170.72 55.7153 172.72C55.662 173.787 55.3953 174.8 54.9153 175.76C54.4353 176.693 53.782 177.507 52.9553 178.2C52.1286 178.893 51.2486 179.507 50.3153 180.04C49.4086 180.547 48.4086 181 47.3153 181.4C47.3153 181.4 47.222 181.44 47.0353 181.52C46.8753 181.573 46.662 181.667 46.3953 181.8C46.1553 181.907 45.8886 182.04 45.5953 182.2ZM44.4753 180.12C45.5953 180.2 46.9153 179.867 48.4353 179.12C49.982 178.373 51.3153 177.4 52.4353 176.2C53.5553 175 54.062 173.88 53.9553 172.84C53.902 172.36 53.8086 172.013 53.6753 171.8C53.5686 171.56 53.342 171.44 52.9953 171.44C52.622 171.44 52.1953 171.573 51.7153 171.84C51.262 172.107 50.702 172.48 50.0353 172.96C49.3686 173.44 48.982 173.72 48.8753 173.8C48.102 174.307 47.2486 175.24 46.3153 176.6C45.382 177.933 44.7686 179.107 44.4753 180.12ZM60.2819 182.8C58.8952 182.747 58.2019 181.96 58.2019 180.44C58.2019 180.067 58.2285 179.387 58.2819 178.4C58.3352 177.387 58.3485 176.493 58.3219 175.72C58.3219 174.947 58.2819 174.333 58.2019 173.88C58.1219 173.533 57.8019 173.053 57.2419 172.44C56.6819 171.8 56.4419 171.307 56.5219 170.96C56.5752 170.773 56.8019 170.56 57.2019 170.32C57.6285 170.053 57.8419 169.747 57.8419 169.4C57.9485 168.867 57.8952 167.933 57.6819 166.6C57.4952 165.24 57.5219 164.387 57.7619 164.04C57.8952 163.8 58.1485 163.68 58.5219 163.68C59.3485 163.68 59.8419 164.52 60.0019 166.2C60.1085 167.907 60.2419 168.853 60.4019 169.04C60.5619 169.253 60.8285 169.427 61.2019 169.56C61.5752 169.693 62.0685 169.8 62.6819 169.88C63.2952 169.96 63.8019 170.027 64.2019 170.08C64.6285 170.133 65.2285 170.187 66.0019 170.24C66.7752 170.293 67.2419 170.32 67.4019 170.32C64.8685 171.067 63.3885 171.493 62.9619 171.6C61.7885 171.84 61.0819 172.053 60.8419 172.24C60.3619 172.587 60.1219 173.213 60.1219 174.12C60.1219 175.587 60.1752 176.787 60.2819 177.72C60.4152 178.627 60.6685 179.533 61.0419 180.44C61.4152 180.333 61.7619 180.24 62.0819 180.16C62.4019 180.053 62.6152 179.987 62.7219 179.96C62.8552 179.907 63.0285 179.867 63.2419 179.84C63.4819 179.813 63.8019 179.8 64.2019 179.8C64.0952 180.547 63.6285 181.24 62.8019 181.88C61.9752 182.493 61.1352 182.8 60.2819 182.8ZM69.1906 176.04C70.1506 176.173 70.9106 176.24 71.4706 176.24C72.0573 176.24 72.9106 176.2 74.0306 176.12C75.1773 176.04 76.0173 176 76.5506 176C77.724 176 78.564 176.2 79.0706 176.6C79.604 177 79.684 177.653 79.3106 178.56C79.0973 179.013 78.7373 179.453 78.2306 179.88C77.724 180.307 77.2173 180.64 76.7106 180.88C76.2306 181.12 75.5906 181.413 74.7906 181.76C74.0173 182.107 73.4573 182.373 73.1106 182.56C72.5506 182.853 72.0573 183.013 71.6306 183.04C71.204 183.04 70.7106 182.907 70.1506 182.64C70.204 182.453 70.3373 182.227 70.5506 181.96C70.7906 181.693 71.0706 181.427 71.3906 181.16C71.7373 180.893 72.0973 180.627 72.4706 180.36C72.8706 180.067 73.2573 179.8 73.6306 179.56C74.004 179.32 74.3373 179.107 74.6306 178.92C74.924 178.733 75.1506 178.573 75.3106 178.44C75.4706 178.307 75.5373 178.24 75.5106 178.24C75.0573 178.133 73.924 178.2 72.1106 178.44C70.324 178.68 69.2973 178.8 69.0306 178.8C67.9373 178.8 67.1373 178.573 66.6306 178.12C66.1506 177.64 66.0573 176.947 66.3506 176.04C66.5906 175.213 67.1373 174.427 67.9906 173.68C68.0706 173.573 68.9106 173.027 70.5106 172.04C72.1106 171.053 73.3906 170.293 74.3506 169.76C74.9106 169.44 75.364 169.213 75.7106 169.08C76.084 168.947 76.4706 168.893 76.8706 168.92C77.2706 168.947 77.6573 169.107 78.0306 169.4C78.644 169.853 78.884 170.28 78.7506 170.68C78.6173 171.08 78.124 171.387 77.2706 171.6C74.3106 172.427 71.6173 173.907 69.1906 176.04ZM89.9006 172.48C90.7806 171.973 91.714 171.653 92.7006 171.52C93.714 171.36 94.594 171.48 95.3406 171.88C96.0873 172.28 96.4606 172.96 96.4606 173.92C96.4606 174.667 96.1006 175.4 95.3806 176.12C94.6873 176.813 93.9273 177.307 93.1006 177.6C92.6473 177.787 92.0873 177.987 91.4206 178.2C90.7806 178.387 90.2873 178.533 89.9406 178.64C89.6206 178.747 89.2473 178.933 88.8206 179.2C88.4206 179.467 88.0606 179.773 87.7406 180.12C88.8873 180.413 90.1406 180.44 91.5006 180.2C92.8873 179.933 94.074 179.587 95.0606 179.16C96.0473 178.733 97.2073 178.32 98.5406 177.92C99.9006 177.493 101.141 177.28 102.261 177.28C102.101 178 101.701 178.56 101.061 178.96C100.767 179.147 100.181 179.427 99.3006 179.8C98.4206 180.173 97.234 180.653 95.7406 181.24C94.2473 181.8 93.4606 182.093 93.3806 182.12C92.554 182.467 91.714 182.72 90.8606 182.88C90.0073 183.013 89.154 183.027 88.3006 182.92C87.4473 182.787 86.7406 182.48 86.1806 182C86.074 181.947 85.8606 181.747 85.5406 181.4C85.2206 181.053 84.954 180.867 84.7406 180.84C84.554 180.84 84.114 180.933 83.4206 181.12C82.754 181.28 82.274 181.373 81.9806 181.4C81.5806 181.427 81.274 181.293 81.0606 181C80.8473 180.707 80.7406 180.373 80.7406 180C80.7406 179.68 80.8606 179.467 81.1006 179.36C81.3406 179.227 81.6073 179.173 81.9006 179.2C82.2206 179.2 82.5673 179.2 82.9406 179.2C83.3406 179.173 83.6606 179.093 83.9006 178.96C84.5673 178.773 84.994 178.573 85.1806 178.36C85.3673 178.12 85.634 177.547 85.9806 176.64C86.114 176.24 86.2473 175.893 86.3806 175.6C86.5406 175.28 86.7273 174.987 86.9406 174.72C87.1806 174.453 87.354 174.253 87.4606 174.12C87.5673 173.987 87.8073 173.8 88.1806 173.56C88.554 173.32 88.794 173.16 88.9006 173.08C89.034 173 89.3673 172.8 89.9006 172.48ZM88.0606 176.96C89.0206 177.013 89.9273 176.88 90.7806 176.56C91.634 176.24 92.314 175.88 92.8206 175.48C93.3273 175.08 93.954 174.52 94.7006 173.8C93.234 173.613 91.9273 173.827 90.7806 174.44C89.634 175.053 88.7273 175.893 88.0606 176.96ZM124.925 168.12C125.032 168.28 125.179 168.52 125.365 168.84C125.579 169.133 125.725 169.347 125.805 169.48C125.885 169.613 125.965 169.813 126.045 170.08C126.125 170.347 126.165 170.64 126.165 170.96C126.165 171.147 126.165 171.413 126.165 171.76C126.192 172.08 126.205 172.32 126.205 172.48C126.205 172.613 126.219 172.813 126.245 173.08C126.272 173.32 126.299 173.547 126.325 173.76C126.379 173.973 126.432 174.2 126.485 174.44C126.539 174.413 126.899 174.027 127.565 173.28C128.232 172.533 128.805 171.987 129.285 171.64C129.765 171.293 130.219 171.12 130.645 171.12C130.939 171.12 131.179 171.2 131.365 171.36C131.579 171.493 131.725 171.627 131.805 171.76C131.885 171.893 132.019 172.16 132.205 172.56C132.392 172.933 132.605 174.04 132.845 175.88C133.112 177.693 133.312 178.773 133.445 179.12C133.552 179.84 134.925 180.387 137.565 180.76C137.432 181.4 136.992 181.92 136.245 182.32C135.499 182.72 134.685 182.88 133.805 182.8C132.925 182.693 132.285 182.333 131.885 181.72C131.405 180.973 131.099 180.08 130.965 179.04C130.645 176.053 130.419 174.413 130.285 174.12C127.379 176.147 125.899 179.2 125.845 183.28C125.285 183.227 124.845 183.013 124.525 182.64C124.232 182.267 124.059 181.787 124.005 181.2C123.952 180.587 123.939 180 123.965 179.44C123.992 178.853 124.045 178.187 124.125 177.44C124.232 176.667 124.285 176.093 124.285 175.72C124.285 175.107 124.192 174.16 124.005 172.88C123.845 171.6 123.819 170.613 123.925 169.92C124.032 169.2 124.365 168.6 124.925 168.12ZM152.167 174.76C152.194 173.933 152.114 173.173 151.927 172.48C151.741 171.787 151.394 171.253 150.887 170.88C150.381 170.48 149.767 170.4 149.047 170.64C146.941 171.36 145.154 172.48 143.687 174C143.207 174.453 142.767 174.547 142.367 174.28C141.994 173.987 141.807 173.547 141.807 172.96C141.807 172.507 142.047 172.067 142.527 171.64C143.034 171.187 143.567 170.827 144.127 170.56C144.687 170.267 145.367 169.947 146.167 169.6C146.967 169.227 147.501 168.973 147.767 168.84C148.407 168.467 148.887 168.213 149.207 168.08C149.554 167.947 149.927 167.88 150.327 167.88C150.754 167.853 151.194 167.947 151.647 168.16C151.967 168.293 152.247 168.587 152.487 169.04C153.981 171.707 154.727 174.253 154.727 176.68C154.727 176.947 154.981 177.72 155.487 179C156.021 180.253 156.287 181.053 156.287 181.4C156.287 181.8 156.167 182.213 155.927 182.64C155.714 183.067 155.447 183.28 155.127 183.28C154.727 183.253 154.394 183.133 154.127 182.92C153.861 182.68 153.661 182.44 153.527 182.2C153.421 181.933 153.287 181.56 153.127 181.08C152.754 181.213 152.127 181.467 151.247 181.84C150.367 182.213 149.674 182.493 149.167 182.68C148.687 182.84 148.074 183.053 147.327 183.32C146.607 183.56 145.927 183.733 145.287 183.84C144.674 183.947 144.061 184 143.447 184C141.394 184 139.981 183.24 139.207 181.72C139.074 181.293 138.994 180.92 138.967 180.6C138.967 180.253 139.087 179.907 139.327 179.56C139.594 179.187 139.861 178.88 140.127 178.64C140.394 178.373 140.727 178.107 141.127 177.84C141.554 177.573 141.927 177.347 142.247 177.16C142.594 176.973 142.954 176.813 143.327 176.68C145.194 175.827 147.861 175.227 151.327 174.88C151.701 174.827 151.981 174.787 152.167 174.76ZM141.407 181.08C142.501 181.373 143.554 181.533 144.567 181.56C145.581 181.56 146.607 181.413 147.647 181.12C148.714 180.827 149.661 180.507 150.487 180.16C151.314 179.787 152.087 179.36 152.807 178.88C152.221 178 151.301 177.44 150.047 177.2C148.821 176.933 147.594 176.96 146.367 177.28C145.167 177.573 144.074 178.067 143.087 178.76C142.101 179.453 141.541 180.227 141.407 181.08ZM161.649 182.8C160.262 182.747 159.569 181.96 159.569 180.44C159.569 180.067 159.596 179.387 159.649 178.4C159.702 177.387 159.716 176.493 159.689 175.72C159.689 174.947 159.649 174.333 159.569 173.88C159.489 173.533 159.169 173.053 158.609 172.44C158.049 171.8 157.809 171.307 157.889 170.96C157.942 170.773 158.169 170.56 158.569 170.32C158.996 170.053 159.209 169.747 159.209 169.4C159.316 168.867 159.262 167.933 159.049 166.6C158.862 165.24 158.889 164.387 159.129 164.04C159.262 163.8 159.516 163.68 159.889 163.68C160.716 163.68 161.209 164.52 161.369 166.2C161.476 167.907 161.609 168.853 161.769 169.04C161.929 169.253 162.196 169.427 162.569 169.56C162.942 169.693 163.436 169.8 164.049 169.88C164.662 169.96 165.169 170.027 165.569 170.08C165.996 170.133 166.596 170.187 167.369 170.24C168.142 170.293 168.609 170.32 168.769 170.32C166.236 171.067 164.756 171.493 164.329 171.6C163.156 171.84 162.449 172.053 162.209 172.24C161.729 172.587 161.489 173.213 161.489 174.12C161.489 175.587 161.542 176.787 161.649 177.72C161.782 178.627 162.036 179.533 162.409 180.44C162.782 180.333 163.129 180.24 163.449 180.16C163.769 180.053 163.982 179.987 164.089 179.96C164.222 179.907 164.396 179.867 164.609 179.84C164.849 179.813 165.169 179.8 165.569 179.8C165.462 180.547 164.996 181.24 164.169 181.88C163.342 182.493 162.502 182.8 161.649 182.8ZM171.278 171.04C170.878 175.253 170.891 178.28 171.318 180.12C172.438 180.04 173.664 179.56 174.998 178.68C176.358 177.773 177.238 176.893 177.638 176.04C177.931 175.613 178.144 174.507 178.278 172.72C178.438 170.907 178.651 169.8 178.918 169.4C179.744 169.693 180.264 170.253 180.478 171.08C180.718 171.907 180.824 173.133 180.798 174.76C180.798 174.973 180.851 175.453 180.958 176.2C181.064 176.92 181.118 177.387 181.118 177.6C181.064 178.027 181.131 178.387 181.318 178.68C181.531 178.947 181.838 179.173 182.238 179.36C182.638 179.547 183.011 179.693 183.358 179.8C183.704 179.88 184.118 179.973 184.598 180.08C184.731 180.08 184.824 180.093 184.878 180.12C184.478 180.52 184.144 180.84 183.878 181.08C183.611 181.293 183.251 181.507 182.798 181.72C182.344 181.907 181.878 182 181.398 182C180.304 182 179.531 181.52 179.078 180.56C178.838 180.107 178.571 179.547 178.278 178.88C175.078 181.413 172.664 182.72 171.038 182.8C170.691 182.8 170.384 182.733 170.118 182.6C169.878 182.467 169.691 182.293 169.558 182.08C169.424 181.867 169.318 181.573 169.238 181.2C169.158 180.827 169.118 180.48 169.118 180.16C169.118 179.84 169.118 179.44 169.118 178.96C169.171 176.56 169.051 173.733 168.758 170.48C168.731 169.973 168.824 169.467 169.038 168.96C169.278 168.453 169.584 168.173 169.958 168.12C170.304 168.093 170.624 168.44 170.918 169.16C171.211 169.88 171.331 170.507 171.278 171.04ZM187.997 171.04C187.597 175.253 187.61 178.28 188.037 180.12C189.157 180.04 190.383 179.56 191.717 178.68C193.077 177.773 193.957 176.893 194.357 176.04C194.65 175.613 194.863 174.507 194.997 172.72C195.157 170.907 195.37 169.8 195.637 169.4C196.463 169.693 196.983 170.253 197.197 171.08C197.437 171.907 197.543 173.133 197.517 174.76C197.517 174.973 197.57 175.453 197.677 176.2C197.783 176.92 197.837 177.387 197.837 177.6C197.783 178.027 197.85 178.387 198.037 178.68C198.25 178.947 198.557 179.173 198.957 179.36C199.357 179.547 199.73 179.693 200.077 179.8C200.423 179.88 200.837 179.973 201.317 180.08C201.45 180.08 201.543 180.093 201.597 180.12C201.197 180.52 200.863 180.84 200.597 181.08C200.33 181.293 199.97 181.507 199.517 181.72C199.063 181.907 198.597 182 198.117 182C197.023 182 196.25 181.52 195.797 180.56C195.557 180.107 195.29 179.547 194.997 178.88C191.797 181.413 189.383 182.72 187.757 182.8C187.41 182.8 187.103 182.733 186.837 182.6C186.597 182.467 186.41 182.293 186.277 182.08C186.143 181.867 186.037 181.573 185.957 181.2C185.877 180.827 185.837 180.48 185.837 180.16C185.837 179.84 185.837 179.44 185.837 178.96C185.89 176.56 185.77 173.733 185.477 170.48C185.45 169.973 185.543 169.467 185.757 168.96C185.997 168.453 186.303 168.173 186.677 168.12C187.023 168.093 187.343 168.44 187.637 169.16C187.93 169.88 188.05 170.507 187.997 171.04ZM204.955 182.96C204.155 182.853 203.515 182.453 203.035 181.76C202.582 181.04 202.315 180.16 202.235 179.12C202.182 178.08 202.195 177.067 202.275 176.08C202.355 175.093 202.515 174.133 202.755 173.2C202.755 173.04 202.822 172.213 202.955 170.72C203.115 169.2 203.569 168.44 204.315 168.44C204.529 168.44 204.715 168.467 204.875 168.52C205.035 168.573 205.155 168.667 205.235 168.8C205.342 168.933 205.422 169.053 205.475 169.16C205.555 169.267 205.595 169.427 205.595 169.64C205.595 169.827 205.595 169.987 205.595 170.12C205.622 170.253 205.609 170.453 205.555 170.72C205.529 170.96 205.502 171.133 205.475 171.24C205.475 171.347 205.449 171.533 205.395 171.8C205.342 172.04 205.302 172.187 205.275 172.24C205.915 172.4 207.075 172.427 208.755 172.32C210.462 172.213 211.622 172.28 212.235 172.52C212.822 172.707 213.342 173.027 213.795 173.48C213.395 173.747 212.715 173.973 211.755 174.16C210.795 174.32 209.889 174.44 209.035 174.52C208.182 174.573 207.382 174.76 206.635 175.08C205.889 175.4 205.449 175.853 205.315 176.44C205.182 177.053 205.115 178.147 205.115 179.72C205.115 181.293 205.062 182.373 204.955 182.96ZM235.538 162.12C235.911 162.013 236.231 162.187 236.498 162.64C236.791 163.067 236.911 163.547 236.858 164.08C236.831 164.613 236.591 164.907 236.138 164.96C235.578 165.04 235.191 164.813 234.978 164.28C234.791 163.747 234.765 163.133 234.898 162.44C234.925 162.28 234.978 162.187 235.058 162.16C235.165 162.133 235.325 162.12 235.538 162.12ZM235.218 182.96C235.005 182.56 234.871 182.093 234.818 181.56C234.791 181.027 234.818 180.547 234.898 180.12C234.978 179.667 235.045 179.107 235.098 178.44C235.178 177.773 235.218 177.187 235.218 176.68C235.191 176.253 235.298 175.427 235.538 174.2C235.778 172.973 235.885 172.32 235.858 172.24C235.858 172.16 235.831 171.907 235.778 171.48C235.751 171.053 235.725 170.733 235.698 170.52C235.698 170.28 235.698 170 235.698 169.68C235.725 169.36 235.791 169.107 235.898 168.92C236.005 168.707 236.151 168.573 236.338 168.52C236.738 168.573 237.125 168.907 237.498 169.52C237.871 170.107 238.018 170.707 237.938 171.32C237.991 171.533 237.951 172.04 237.818 172.84C237.685 173.64 237.525 174.427 237.338 175.2C237.178 175.947 237.098 176.32 237.098 176.32C237.098 176.56 237.085 176.92 237.058 177.4C237.031 177.88 237.005 178.28 236.978 178.6C236.951 178.92 236.911 179.32 236.858 179.8C236.805 180.253 236.725 180.64 236.618 180.96C236.538 181.28 236.431 181.6 236.298 181.92C236.191 182.213 236.045 182.453 235.858 182.64C235.671 182.8 235.458 182.907 235.218 182.96ZM241.722 168.12C241.829 168.28 241.976 168.52 242.162 168.84C242.376 169.133 242.522 169.347 242.602 169.48C242.682 169.613 242.762 169.813 242.842 170.08C242.922 170.347 242.962 170.64 242.962 170.96C242.962 171.147 242.962 171.413 242.962 171.76C242.989 172.08 243.002 172.32 243.002 172.48C243.002 172.613 243.016 172.813 243.042 173.08C243.069 173.32 243.096 173.547 243.122 173.76C243.176 173.973 243.229 174.2 243.282 174.44C243.336 174.413 243.696 174.027 244.362 173.28C245.029 172.533 245.602 171.987 246.082 171.64C246.562 171.293 247.016 171.12 247.442 171.12C247.736 171.12 247.976 171.2 248.162 171.36C248.376 171.493 248.522 171.627 248.602 171.76C248.682 171.893 248.816 172.16 249.002 172.56C249.189 172.933 249.402 174.04 249.642 175.88C249.909 177.693 250.109 178.773 250.242 179.12C250.349 179.84 251.722 180.387 254.362 180.76C254.229 181.4 253.789 181.92 253.042 182.32C252.296 182.72 251.482 182.88 250.602 182.8C249.722 182.693 249.082 182.333 248.682 181.72C248.202 180.973 247.896 180.08 247.762 179.04C247.442 176.053 247.216 174.413 247.082 174.12C244.176 176.147 242.696 179.2 242.642 183.28C242.082 183.227 241.642 183.013 241.322 182.64C241.029 182.267 240.856 181.787 240.802 181.2C240.749 180.587 240.736 180 240.762 179.44C240.789 178.853 240.842 178.187 240.922 177.44C241.029 176.667 241.082 176.093 241.082 175.72C241.082 175.107 240.989 174.16 240.802 172.88C240.642 171.6 240.616 170.613 240.722 169.92C240.829 169.2 241.162 168.6 241.722 168.12ZM283.924 172.48C284.804 171.973 285.737 171.653 286.724 171.52C287.737 171.36 288.617 171.48 289.364 171.88C290.111 172.28 290.484 172.96 290.484 173.92C290.484 174.667 290.124 175.4 289.404 176.12C288.711 176.813 287.951 177.307 287.124 177.6C286.671 177.787 286.111 177.987 285.444 178.2C284.804 178.387 284.311 178.533 283.964 178.64C283.644 178.747 283.271 178.933 282.844 179.2C282.444 179.467 282.084 179.773 281.764 180.12C282.911 180.413 284.164 180.44 285.524 180.2C286.911 179.933 288.097 179.587 289.084 179.16C290.071 178.733 291.231 178.32 292.564 177.92C293.924 177.493 295.164 177.28 296.284 177.28C296.124 178 295.724 178.56 295.084 178.96C294.791 179.147 294.204 179.427 293.324 179.8C292.444 180.173 291.257 180.653 289.764 181.24C288.271 181.8 287.484 182.093 287.404 182.12C286.577 182.467 285.737 182.72 284.884 182.88C284.031 183.013 283.177 183.027 282.324 182.92C281.471 182.787 280.764 182.48 280.204 182C280.097 181.947 279.884 181.747 279.564 181.4C279.244 181.053 278.977 180.867 278.764 180.84C278.577 180.84 278.137 180.933 277.444 181.12C276.777 181.28 276.297 181.373 276.004 181.4C275.604 181.427 275.297 181.293 275.084 181C274.871 180.707 274.764 180.373 274.764 180C274.764 179.68 274.884 179.467 275.124 179.36C275.364 179.227 275.631 179.173 275.924 179.2C276.244 179.2 276.591 179.2 276.964 179.2C277.364 179.173 277.684 179.093 277.924 178.96C278.591 178.773 279.017 178.573 279.204 178.36C279.391 178.12 279.657 177.547 280.004 176.64C280.137 176.24 280.271 175.893 280.404 175.6C280.564 175.28 280.751 174.987 280.964 174.72C281.204 174.453 281.377 174.253 281.484 174.12C281.591 173.987 281.831 173.8 282.204 173.56C282.577 173.32 282.817 173.16 282.924 173.08C283.057 173 283.391 172.8 283.924 172.48ZM282.084 176.96C283.044 177.013 283.951 176.88 284.804 176.56C285.657 176.24 286.337 175.88 286.844 175.48C287.351 175.08 287.977 174.52 288.724 173.8C287.257 173.613 285.951 173.827 284.804 174.44C283.657 175.053 282.751 175.893 282.084 176.96ZM306.229 172.48C307.109 171.973 308.042 171.653 309.029 171.52C310.042 171.36 310.922 171.48 311.669 171.88C312.415 172.28 312.789 172.96 312.789 173.92C312.789 174.667 312.429 175.4 311.709 176.12C311.015 176.813 310.255 177.307 309.429 177.6C308.975 177.787 308.415 177.987 307.749 178.2C307.109 178.387 306.615 178.533 306.269 178.64C305.949 178.747 305.575 178.933 305.149 179.2C304.749 179.467 304.389 179.773 304.069 180.12C305.215 180.413 306.469 180.44 307.829 180.2C309.215 179.933 310.402 179.587 311.389 179.16C312.375 178.733 313.535 178.32 314.869 177.92C316.229 177.493 317.469 177.28 318.589 177.28C318.429 178 318.029 178.56 317.389 178.96C317.095 179.147 316.509 179.427 315.629 179.8C314.749 180.173 313.562 180.653 312.069 181.24C310.575 181.8 309.789 182.093 309.709 182.12C308.882 182.467 308.042 182.72 307.189 182.88C306.335 183.013 305.482 183.027 304.629 182.92C303.775 182.787 303.069 182.48 302.509 182C302.402 181.947 302.189 181.747 301.869 181.4C301.549 181.053 301.282 180.867 301.069 180.84C300.882 180.84 300.442 180.933 299.749 181.12C299.082 181.28 298.602 181.373 298.309 181.4C297.909 181.427 297.602 181.293 297.389 181C297.175 180.707 297.069 180.373 297.069 180C297.069 179.68 297.189 179.467 297.429 179.36C297.669 179.227 297.935 179.173 298.229 179.2C298.549 179.2 298.895 179.2 299.269 179.2C299.669 179.173 299.989 179.093 300.229 178.96C300.895 178.773 301.322 178.573 301.509 178.36C301.695 178.12 301.962 177.547 302.309 176.64C302.442 176.24 302.575 175.893 302.709 175.6C302.869 175.28 303.055 174.987 303.269 174.72C303.509 174.453 303.682 174.253 303.789 174.12C303.895 173.987 304.135 173.8 304.509 173.56C304.882 173.32 305.122 173.16 305.229 173.08C305.362 173 305.695 172.8 306.229 172.48ZM304.389 176.96C305.349 177.013 306.255 176.88 307.109 176.56C307.962 176.24 308.642 175.88 309.149 175.48C309.655 175.08 310.282 174.52 311.029 173.8C309.562 173.613 308.255 173.827 307.109 174.44C305.962 175.053 305.055 175.893 304.389 176.96ZM321.253 168.12C321.36 168.28 321.507 168.52 321.693 168.84C321.907 169.133 322.053 169.347 322.133 169.48C322.213 169.613 322.293 169.813 322.373 170.08C322.453 170.347 322.493 170.64 322.493 170.96C322.493 171.147 322.493 171.413 322.493 171.76C322.52 172.08 322.533 172.32 322.533 172.48C322.533 172.613 322.547 172.813 322.573 173.08C322.6 173.32 322.627 173.547 322.653 173.76C322.707 173.973 322.76 174.2 322.813 174.44C322.867 174.413 323.227 174.027 323.893 173.28C324.56 172.533 325.133 171.987 325.613 171.64C326.093 171.293 326.547 171.12 326.973 171.12C327.267 171.12 327.507 171.2 327.693 171.36C327.907 171.493 328.053 171.627 328.133 171.76C328.213 171.893 328.347 172.16 328.533 172.56C328.72 172.933 328.933 174.04 329.173 175.88C329.44 177.693 329.64 178.773 329.773 179.12C329.88 179.84 331.253 180.387 333.893 180.76C333.76 181.4 333.32 181.92 332.573 182.32C331.827 182.72 331.013 182.88 330.133 182.8C329.253 182.693 328.613 182.333 328.213 181.72C327.733 180.973 327.427 180.08 327.293 179.04C326.973 176.053 326.747 174.413 326.613 174.12C323.707 176.147 322.227 179.2 322.173 183.28C321.613 183.227 321.173 183.013 320.853 182.64C320.56 182.267 320.387 181.787 320.333 181.2C320.28 180.587 320.267 180 320.293 179.44C320.32 178.853 320.373 178.187 320.453 177.44C320.56 176.667 320.613 176.093 320.613 175.72C320.613 175.107 320.52 174.16 320.333 172.88C320.173 171.6 320.147 170.613 320.253 169.92C320.36 169.2 320.693 168.6 321.253 168.12ZM356.575 171.6C356.415 167.707 356.055 164.627 355.495 162.36C355.522 161.48 355.855 160.867 356.495 160.52L356.615 160.68C356.695 160.76 356.762 160.813 356.815 160.84C356.895 160.867 357.002 160.867 357.135 160.84C357.455 160.973 357.735 161.307 357.975 161.84C358.215 162.373 358.349 162.88 358.375 163.36C358.455 164.48 358.562 166.173 358.695 168.44C358.829 170.68 358.935 172.36 359.015 173.48C359.309 173.32 359.535 173.2 359.695 173.12C359.882 173.013 360.055 172.92 360.215 172.84C360.375 172.733 360.522 172.627 360.655 172.52C360.789 172.413 360.909 172.333 361.015 172.28C361.122 172.2 361.269 172.067 361.455 171.88C361.669 171.693 361.829 171.547 361.935 171.44C362.069 171.333 362.295 171.12 362.615 170.8C362.962 170.48 363.242 170.213 363.455 170C363.669 169.787 363.909 169.493 364.175 169.12C364.469 168.747 364.735 168.44 364.975 168.2C365.215 167.96 365.495 167.8 365.815 167.72C366.002 167.667 366.175 167.8 366.335 168.12C366.522 168.413 366.629 168.747 366.655 169.12C366.682 169.28 366.642 169.453 366.535 169.64C366.455 169.827 366.362 170 366.255 170.16C366.175 170.293 366.029 170.467 365.815 170.68C365.602 170.867 365.429 171.013 365.295 171.12C365.189 171.227 365.029 171.373 364.815 171.56C364.602 171.747 364.469 171.867 364.415 171.92C363.722 172.48 363.109 173 362.575 173.48C362.069 173.933 361.722 174.24 361.535 174.4C361.375 174.56 361.122 174.773 360.775 175.04C360.455 175.28 359.975 175.613 359.335 176.04C360.402 176.653 362.282 177.44 364.975 178.4C367.695 179.333 369.495 180.013 370.375 180.44C370.775 180.627 371.069 180.907 371.255 181.28C371.442 181.627 371.455 181.947 371.295 182.24C371.135 182.507 370.815 182.667 370.335 182.72C370.175 182.747 369.962 182.72 369.695 182.64C369.455 182.56 369.149 182.44 368.775 182.28C368.429 182.12 368.229 182.027 368.175 182C368.042 181.947 367.642 181.787 366.975 181.52C366.309 181.253 365.695 181.027 365.135 180.84C364.602 180.627 363.989 180.4 363.295 180.16C362.629 179.893 362.015 179.693 361.455 179.56C360.922 179.427 360.495 179.36 360.175 179.36C359.695 179.36 359.202 179.413 358.695 179.52C359.015 180.747 358.909 181.787 358.375 182.64C357.335 182.213 356.695 181.52 356.455 180.56C356.055 178.853 355.802 177.533 355.695 176.6C355.749 176.307 355.869 175.827 356.055 175.16C356.242 174.493 356.375 173.88 356.455 173.32C356.562 172.76 356.602 172.187 356.575 171.6ZM372.76 163.72C372.307 162.547 372.453 161.587 373.2 160.84C373.653 160.813 374 160.907 374.24 161.12C374.48 161.307 374.707 161.68 374.92 162.24C375.24 163.147 375.4 164.587 375.4 166.56C375.4 168.613 375.48 171.067 375.64 173.92C375.827 176.773 375.92 178.8 375.92 180C375.92 181.387 375.747 182.48 375.4 183.28C374.68 182.96 374.173 182.32 373.88 181.36C373.587 180.4 373.453 179.453 373.48 178.52C373.507 177.56 373.573 176.36 373.68 174.92C373.787 173.453 373.84 172.387 373.84 171.72C373.84 171.373 373.827 170.813 373.8 170.04C373.8 169.24 373.787 168.733 373.76 168.52C373.76 168.307 373.733 167.947 373.68 167.44C373.653 166.933 373.6 166.547 373.52 166.28C373.44 165.987 373.333 165.627 373.2 165.2C373.093 164.747 372.947 164.253 372.76 163.72ZM387.088 172.48C387.968 171.973 388.901 171.653 389.888 171.52C390.901 171.36 391.781 171.48 392.528 171.88C393.275 172.28 393.648 172.96 393.648 173.92C393.648 174.667 393.288 175.4 392.568 176.12C391.875 176.813 391.115 177.307 390.288 177.6C389.835 177.787 389.275 177.987 388.608 178.2C387.968 178.387 387.475 178.533 387.128 178.64C386.808 178.747 386.435 178.933 386.008 179.2C385.608 179.467 385.248 179.773 384.928 180.12C386.075 180.413 387.328 180.44 388.688 180.2C390.075 179.933 391.261 179.587 392.248 179.16C393.235 178.733 394.395 178.32 395.728 177.92C397.088 177.493 398.328 177.28 399.448 177.28C399.288 178 398.888 178.56 398.248 178.96C397.955 179.147 397.368 179.427 396.488 179.8C395.608 180.173 394.421 180.653 392.928 181.24C391.435 181.8 390.648 182.093 390.568 182.12C389.741 182.467 388.901 182.72 388.048 182.88C387.195 183.013 386.341 183.027 385.488 182.92C384.635 182.787 383.928 182.48 383.368 182C383.261 181.947 383.048 181.747 382.728 181.4C382.408 181.053 382.141 180.867 381.928 180.84C381.741 180.84 381.301 180.933 380.608 181.12C379.941 181.28 379.461 181.373 379.168 181.4C378.768 181.427 378.461 181.293 378.248 181C378.035 180.707 377.928 180.373 377.928 180C377.928 179.68 378.048 179.467 378.288 179.36C378.528 179.227 378.795 179.173 379.088 179.2C379.408 179.2 379.755 179.2 380.128 179.2C380.528 179.173 380.848 179.093 381.088 178.96C381.755 178.773 382.181 178.573 382.368 178.36C382.555 178.12 382.821 177.547 383.168 176.64C383.301 176.24 383.435 175.893 383.568 175.6C383.728 175.28 383.915 174.987 384.128 174.72C384.368 174.453 384.541 174.253 384.648 174.12C384.755 173.987 384.995 173.8 385.368 173.56C385.741 173.32 385.981 173.16 386.088 173.08C386.221 173 386.555 172.8 387.088 172.48ZM385.248 176.96C386.208 177.013 387.115 176.88 387.968 176.56C388.821 176.24 389.501 175.88 390.008 175.48C390.515 175.08 391.141 174.52 391.888 173.8C390.421 173.613 389.115 173.827 387.968 174.44C386.821 175.053 385.915 175.893 385.248 176.96ZM401.593 162.12C401.966 162.013 402.286 162.187 402.553 162.64C402.846 163.067 402.966 163.547 402.913 164.08C402.886 164.613 402.646 164.907 402.193 164.96C401.633 165.04 401.246 164.813 401.033 164.28C400.846 163.747 400.819 163.133 400.953 162.44C400.979 162.28 401.033 162.187 401.113 162.16C401.219 162.133 401.379 162.12 401.593 162.12ZM401.273 182.96C401.059 182.56 400.926 182.093 400.873 181.56C400.846 181.027 400.873 180.547 400.953 180.12C401.033 179.667 401.099 179.107 401.153 178.44C401.233 177.773 401.273 177.187 401.273 176.68C401.246 176.253 401.353 175.427 401.593 174.2C401.833 172.973 401.939 172.32 401.913 172.24C401.913 172.16 401.886 171.907 401.833 171.48C401.806 171.053 401.779 170.733 401.753 170.52C401.753 170.28 401.753 170 401.753 169.68C401.779 169.36 401.846 169.107 401.953 168.92C402.059 168.707 402.206 168.573 402.393 168.52C402.793 168.573 403.179 168.907 403.553 169.52C403.926 170.107 404.073 170.707 403.993 171.32C404.046 171.533 404.006 172.04 403.873 172.84C403.739 173.64 403.579 174.427 403.393 175.2C403.233 175.947 403.153 176.32 403.153 176.32C403.153 176.56 403.139 176.92 403.113 177.4C403.086 177.88 403.059 178.28 403.033 178.6C403.006 178.92 402.966 179.32 402.913 179.8C402.859 180.253 402.779 180.64 402.673 180.96C402.593 181.28 402.486 181.6 402.353 181.92C402.246 182.213 402.099 182.453 401.913 182.64C401.726 182.8 401.513 182.907 401.273 182.96ZM407.777 168.12C407.884 168.28 408.03 168.52 408.217 168.84C408.43 169.133 408.577 169.347 408.657 169.48C408.737 169.613 408.817 169.813 408.897 170.08C408.977 170.347 409.017 170.64 409.017 170.96C409.017 171.147 409.017 171.413 409.017 171.76C409.044 172.08 409.057 172.32 409.057 172.48C409.057 172.613 409.07 172.813 409.097 173.08C409.124 173.32 409.15 173.547 409.177 173.76C409.23 173.973 409.284 174.2 409.337 174.44C409.39 174.413 409.75 174.027 410.417 173.28C411.084 172.533 411.657 171.987 412.137 171.64C412.617 171.293 413.07 171.12 413.497 171.12C413.79 171.12 414.03 171.2 414.217 171.36C414.43 171.493 414.577 171.627 414.657 171.76C414.737 171.893 414.87 172.16 415.057 172.56C415.244 172.933 415.457 174.04 415.697 175.88C415.964 177.693 416.164 178.773 416.297 179.12C416.404 179.84 417.777 180.387 420.417 180.76C420.284 181.4 419.844 181.92 419.097 182.32C418.35 182.72 417.537 182.88 416.657 182.8C415.777 182.693 415.137 182.333 414.737 181.72C414.257 180.973 413.95 180.08 413.817 179.04C413.497 176.053 413.27 174.413 413.137 174.12C410.23 176.147 408.75 179.2 408.697 183.28C408.137 183.227 407.697 183.013 407.377 182.64C407.084 182.267 406.91 181.787 406.857 181.2C406.804 180.587 406.79 180 406.817 179.44C406.844 178.853 406.897 178.187 406.977 177.44C407.084 176.667 407.137 176.093 407.137 175.72C407.137 175.107 407.044 174.16 406.857 172.88C406.697 171.6 406.67 170.613 406.777 169.92C406.884 169.2 407.217 168.6 407.777 168.12ZM441.979 163.72C441.525 162.547 441.672 161.587 442.419 160.84C442.872 160.813 443.219 160.907 443.459 161.12C443.699 161.307 443.925 161.68 444.139 162.24C444.459 163.147 444.619 164.587 444.619 166.56C444.619 168.613 444.699 171.067 444.859 173.92C445.045 176.773 445.139 178.8 445.139 180C445.139 181.387 444.965 182.48 444.619 183.28C443.899 182.96 443.392 182.32 443.099 181.36C442.805 180.4 442.672 179.453 442.699 178.52C442.725 177.56 442.792 176.36 442.899 174.92C443.005 173.453 443.059 172.387 443.059 171.72C443.059 171.373 443.045 170.813 443.019 170.04C443.019 169.24 443.005 168.733 442.979 168.52C442.979 168.307 442.952 167.947 442.899 167.44C442.872 166.933 442.819 166.547 442.739 166.28C442.659 165.987 442.552 165.627 442.419 165.2C442.312 164.747 442.165 164.253 441.979 163.72ZM461.347 174.76C461.374 173.933 461.294 173.173 461.107 172.48C460.92 171.787 460.574 171.253 460.067 170.88C459.56 170.48 458.947 170.4 458.227 170.64C456.12 171.36 454.334 172.48 452.867 174C452.387 174.453 451.947 174.547 451.547 174.28C451.174 173.987 450.987 173.547 450.987 172.96C450.987 172.507 451.227 172.067 451.707 171.64C452.214 171.187 452.747 170.827 453.307 170.56C453.867 170.267 454.547 169.947 455.347 169.6C456.147 169.227 456.68 168.973 456.947 168.84C457.587 168.467 458.067 168.213 458.387 168.08C458.734 167.947 459.107 167.88 459.507 167.88C459.934 167.853 460.374 167.947 460.827 168.16C461.147 168.293 461.427 168.587 461.667 169.04C463.16 171.707 463.907 174.253 463.907 176.68C463.907 176.947 464.16 177.72 464.667 179C465.2 180.253 465.467 181.053 465.467 181.4C465.467 181.8 465.347 182.213 465.107 182.64C464.894 183.067 464.627 183.28 464.307 183.28C463.907 183.253 463.574 183.133 463.307 182.92C463.04 182.68 462.84 182.44 462.707 182.2C462.6 181.933 462.467 181.56 462.307 181.08C461.934 181.213 461.307 181.467 460.427 181.84C459.547 182.213 458.854 182.493 458.347 182.68C457.867 182.84 457.254 183.053 456.507 183.32C455.787 183.56 455.107 183.733 454.467 183.84C453.854 183.947 453.24 184 452.627 184C450.574 184 449.16 183.24 448.387 181.72C448.254 181.293 448.174 180.92 448.147 180.6C448.147 180.253 448.267 179.907 448.507 179.56C448.774 179.187 449.04 178.88 449.307 178.64C449.574 178.373 449.907 178.107 450.307 177.84C450.734 177.573 451.107 177.347 451.427 177.16C451.774 176.973 452.134 176.813 452.507 176.68C454.374 175.827 457.04 175.227 460.507 174.88C460.88 174.827 461.16 174.787 461.347 174.76ZM450.587 181.08C451.68 181.373 452.734 181.533 453.747 181.56C454.76 181.56 455.787 181.413 456.827 181.12C457.894 180.827 458.84 180.507 459.667 180.16C460.494 179.787 461.267 179.36 461.987 178.88C461.4 178 460.48 177.44 459.227 177.2C458 176.933 456.774 176.96 455.547 177.28C454.347 177.573 453.254 178.067 452.267 178.76C451.28 179.453 450.72 180.227 450.587 181.08ZM468.949 168.12C469.055 168.28 469.202 168.52 469.389 168.84C469.602 169.133 469.749 169.347 469.829 169.48C469.909 169.613 469.989 169.813 470.069 170.08C470.149 170.347 470.189 170.64 470.189 170.96C470.189 171.147 470.189 171.413 470.189 171.76C470.215 172.08 470.229 172.32 470.229 172.48C470.229 172.613 470.242 172.813 470.269 173.08C470.295 173.32 470.322 173.547 470.349 173.76C470.402 173.973 470.455 174.2 470.509 174.44C470.562 174.413 470.922 174.027 471.589 173.28C472.255 172.533 472.829 171.987 473.309 171.64C473.789 171.293 474.242 171.12 474.669 171.12C474.962 171.12 475.202 171.2 475.389 171.36C475.602 171.493 475.749 171.627 475.829 171.76C475.909 171.893 476.042 172.16 476.229 172.56C476.415 172.933 476.629 174.04 476.869 175.88C477.135 177.693 477.335 178.773 477.469 179.12C477.575 179.84 478.949 180.387 481.589 180.76C481.455 181.4 481.015 181.92 480.269 182.32C479.522 182.72 478.709 182.88 477.829 182.8C476.949 182.693 476.309 182.333 475.909 181.72C475.429 180.973 475.122 180.08 474.989 179.04C474.669 176.053 474.442 174.413 474.309 174.12C471.402 176.147 469.922 179.2 469.869 183.28C469.309 183.227 468.869 183.013 468.549 182.64C468.255 182.267 468.082 181.787 468.029 181.2C467.975 180.587 467.962 180 467.989 179.44C468.015 178.853 468.069 178.187 468.149 177.44C468.255 176.667 468.309 176.093 468.309 175.72C468.309 175.107 468.215 174.16 468.029 172.88C467.869 171.6 467.842 170.613 467.949 169.92C468.055 169.2 468.389 168.6 468.949 168.12ZM497.711 185.8C497.257 185.693 496.871 185.453 496.551 185.08C496.257 184.707 496.044 184.227 495.911 183.64C495.804 183.053 495.737 182.493 495.711 181.96C495.684 181.427 495.657 180.787 495.631 180.04C495.604 179.267 495.564 178.667 495.511 178.24C495.217 178.4 494.297 178.92 492.751 179.8C491.231 180.68 490.044 181.32 489.191 181.72C487.644 182.44 486.271 182.827 485.071 182.88C484.404 182.907 483.764 182.693 483.151 182.24C482.537 181.76 482.217 181.227 482.191 180.64C482.191 179.733 482.937 178.813 484.431 177.88C484.991 177.533 485.817 177 486.911 176.28C488.031 175.533 488.844 175.013 489.351 174.72C489.857 174.4 490.537 174.027 491.391 173.6C492.244 173.173 493.097 172.827 493.951 172.56C494.964 172.187 495.604 171.747 495.871 171.24C496.164 170.733 496.257 169.8 496.151 168.44C496.151 168.333 496.137 168.12 496.111 167.8C496.111 167.453 496.097 167.187 496.071 167C496.071 166.813 496.071 166.573 496.071 166.28C496.071 165.96 496.084 165.707 496.111 165.52C496.164 165.333 496.217 165.147 496.271 164.96C496.351 164.747 496.457 164.6 496.591 164.52C496.751 164.413 496.924 164.347 497.111 164.32C497.484 164.293 497.764 164.373 497.951 164.56C498.164 164.72 498.284 164.987 498.311 165.36C498.337 165.733 498.337 166.053 498.311 166.32C498.311 166.587 498.271 166.987 498.191 167.52C498.111 168.027 498.071 168.333 498.071 168.44C497.911 169.853 497.817 171.44 497.791 173.2C497.791 174.96 497.817 176.973 497.871 179.24C497.924 181.507 497.951 183.12 497.951 184.08C497.951 184.693 497.871 185.267 497.711 185.8ZM484.791 180.44C485.564 180.573 486.351 180.533 487.151 180.32C487.951 180.107 488.924 179.72 490.071 179.16C491.244 178.6 491.897 178.293 492.031 178.24C492.217 178.16 492.511 178.053 492.911 177.92C493.337 177.787 493.684 177.68 493.951 177.6C494.217 177.493 494.497 177.347 494.791 177.16C495.084 176.973 495.311 176.76 495.471 176.52C495.631 176.253 495.711 175.947 495.711 175.6C495.711 175.227 495.644 174.84 495.511 174.44C492.071 175.107 488.497 177.107 484.791 180.44Z" fill="#F1F1F1"/>
<path d="M83.65 43.75C83.0833 43.6167 82.6 43.3167 82.2 42.85C81.8333 42.3833 81.5667 41.7833 81.4 41.05C81.2667 40.3167 81.1833 39.6167 81.15 38.95C81.1167 38.2833 81.0833 37.4833 81.05 36.55C81.0167 35.5833 80.9667 34.8333 80.9 34.3C80.5333 34.5 79.3833 35.15 77.45 36.25C75.55 37.35 74.0667 38.15 73 38.65C71.0667 39.55 69.35 40.0333 67.85 40.1C67.0167 40.1333 66.2167 39.8667 65.45 39.3C64.6833 38.7 64.2833 38.0333 64.25 37.3C64.25 36.1667 65.1833 35.0167 67.05 33.85C67.75 33.4167 68.7833 32.75 70.15 31.85C71.55 30.9167 72.5667 30.2667 73.2 29.9C73.8333 29.5 74.6833 29.0333 75.75 28.5C76.8167 27.9667 77.8833 27.5333 78.95 27.2C80.2167 26.7333 81.0167 26.1833 81.35 25.55C81.7167 24.9167 81.8333 23.75 81.7 22.05C81.7 21.9167 81.6833 21.65 81.65 21.25C81.65 20.8167 81.6333 20.4833 81.6 20.25C81.6 20.0167 81.6 19.7167 81.6 19.35C81.6 18.95 81.6167 18.6333 81.65 18.4C81.7167 18.1667 81.7833 17.9333 81.85 17.7C81.95 17.4333 82.0833 17.25 82.25 17.15C82.45 17.0167 82.6667 16.9333 82.9 16.9C83.3667 16.8667 83.7167 16.9667 83.95 17.2C84.2167 17.4 84.3667 17.7333 84.4 18.2C84.4333 18.6667 84.4333 19.0667 84.4 19.4C84.4 19.7333 84.35 20.2333 84.25 20.9C84.15 21.5333 84.1 21.9167 84.1 22.05C83.9 23.8167 83.7833 25.8 83.75 28C83.75 30.2 83.7833 32.7167 83.85 35.55C83.9167 38.3833 83.95 40.4 83.95 41.6C83.95 42.3667 83.85 43.0833 83.65 43.75ZM67.5 37.05C68.4667 37.2167 69.45 37.1667 70.45 36.9C71.45 36.6333 72.6667 36.15 74.1 35.45C75.5667 34.75 76.3833 34.3667 76.55 34.3C76.7833 34.2 77.15 34.0667 77.65 33.9C78.1833 33.7333 78.6167 33.6 78.95 33.5C79.2833 33.3667 79.6333 33.1833 80 32.95C80.3667 32.7167 80.65 32.45 80.85 32.15C81.05 31.8167 81.15 31.4333 81.15 31C81.15 30.5333 81.0667 30.05 80.9 29.55C76.6 30.3833 72.1333 32.8833 67.5 37.05ZM97.9109 27.1C99.0109 26.4667 100.178 26.0667 101.411 25.9C102.678 25.7 103.778 25.85 104.711 26.35C105.644 26.85 106.111 27.7 106.111 28.9C106.111 29.8333 105.661 30.75 104.761 31.65C103.894 32.5167 102.944 33.1333 101.911 33.5C101.344 33.7333 100.644 33.9833 99.8109 34.25C99.0109 34.4833 98.3943 34.6667 97.9609 34.8C97.5609 34.9333 97.0943 35.1667 96.5609 35.5C96.0609 35.8333 95.6109 36.2167 95.2109 36.65C96.6443 37.0167 98.2109 37.05 99.9109 36.75C101.644 36.4167 103.128 35.9833 104.361 35.45C105.594 34.9167 107.044 34.4 108.711 33.9C110.411 33.3667 111.961 33.1 113.361 33.1C113.161 34 112.661 34.7 111.861 35.2C111.494 35.4333 110.761 35.7833 109.661 36.25C108.561 36.7167 107.078 37.3167 105.211 38.05C103.344 38.75 102.361 39.1167 102.261 39.15C101.228 39.5833 100.178 39.9 99.1109 40.1C98.0443 40.2667 96.9776 40.2833 95.9109 40.15C94.8443 39.9833 93.9609 39.6 93.2609 39C93.1276 38.9333 92.8609 38.6833 92.4609 38.25C92.0609 37.8167 91.7276 37.5833 91.4609 37.55C91.2276 37.55 90.6776 37.6667 89.8109 37.9C88.9776 38.1 88.3776 38.2167 88.0109 38.25C87.5109 38.2833 87.1276 38.1167 86.8609 37.75C86.5943 37.3833 86.4609 36.9667 86.4609 36.5C86.4609 36.1 86.6109 35.8333 86.9109 35.7C87.2109 35.5333 87.5443 35.4667 87.9109 35.5C88.3109 35.5 88.7443 35.5 89.2109 35.5C89.7109 35.4667 90.1109 35.3667 90.4109 35.2C91.2443 34.9667 91.7776 34.7167 92.0109 34.45C92.2443 34.15 92.5776 33.4333 93.0109 32.3C93.1776 31.8 93.3443 31.3667 93.5109 31C93.7109 30.6 93.9443 30.2333 94.2109 29.9C94.5109 29.5667 94.7276 29.3167 94.8609 29.15C94.9943 28.9833 95.2943 28.75 95.7609 28.45C96.2276 28.15 96.5276 27.95 96.6609 27.85C96.8276 27.75 97.2443 27.5 97.9109 27.1ZM95.6109 32.7C96.8109 32.7667 97.9443 32.6 99.0109 32.2C100.078 31.8 100.928 31.35 101.561 30.85C102.194 30.35 102.978 29.65 103.911 28.75C102.078 28.5167 100.444 28.7833 99.0109 29.55C97.5776 30.3167 96.4443 31.3667 95.6109 32.7Z" fill="#EEEEEE"/>
</svg>
