<svg width="500" height="500" viewBox="0 0 500 500" fill="none" xmlns="http://www.w3.org/2000/svg">
<path d="M323.564 96.5216C254.663 82.4306 256.916 3 168.523 3C96.3585 3 107.963 147.757 107.963 147.757C122.468 152.381 133.244 161.939 141.598 173.569C135.744 179.151 130.084 187.142 124.023 198.708C115.293 215.143 98.7416 221.334 83.446 224.494C71.4401 227.149 60.1854 227.654 54.1113 230.063C40.4605 235.114 24.906 244.102 29.0763 264.203C33.0006 283.798 39.8259 275.198 39.1913 266.728C41.2117 279.874 49.4358 286.453 51.4562 274.059C55.251 288.473 65.612 287.58 64.0967 274.939C62.7109 264.073 74.3413 251.044 98.8581 251.679C112.768 252.054 123.634 252.948 134.384 254.839C142.724 256.108 150.948 257.999 160.429 260.654C163.434 261.496 166.542 261.871 169.689 262.027C174.792 290.261 184.557 321.007 214.216 334.14C263.055 355.769 330.791 434.798 376.587 434.798C422.383 434.798 500 375.247 500 284.251C500 193.255 448.933 122.152 323.564 96.5216Z" fill="#486D54"/>
<path d="M107.963 147.757C138.373 157.445 152.762 188.567 161.568 215.816C170.375 243.066 165.376 312.511 214.216 334.14C263.055 355.769 330.791 434.798 376.587 434.798C422.383 434.798 500 375.247 500 284.251C500 193.255 448.933 122.152 323.564 96.5216C254.663 82.4306 256.916 3 168.523 3C96.3455 3 107.963 147.757 107.963 147.757Z" fill="#486D54"/>
<path d="M141.598 173.569C156.129 167.197 207.416 122.165 204.321 69.2073C170.039 90.2014 107.963 147.757 107.963 147.757C125.473 154.155 131.638 161.019 141.598 173.569Z" fill="#486D54"/>
<path d="M206.691 29.0581C203.596 14.6174 193.714 3 168.523 3C141.468 3 73.4476 17.9199 34.3864 35.8705C28.1827 38.7716 22.6266 41.6857 18.1972 44.5997C11.5014 48.8995 9.0924 58.1209 8.96289 68.6244C8.96289 74.6986 9.72702 81.1354 10.8538 87.4557C13.0037 99.4616 16.928 110.846 20.2047 117.166C27.5351 131.205 54.4609 147.511 107.95 147.757C113.001 147.757 118.441 147.628 124.01 147.382C178.807 144.688 197.845 97.5966 204.308 69.2073C204.709 69.2332 205.098 69.3238 205.512 69.3238C216.664 69.3238 225.704 60.2838 225.704 49.1327C225.704 38.3831 217.285 29.6798 206.691 29.0581Z" fill="#486D54"/>
<path d="M114.49 55.0126C123.245 55.0126 130.343 48.8835 130.343 41.323C130.343 33.7624 123.245 27.6334 114.49 27.6334C105.735 27.6334 98.6379 33.7624 98.6379 41.323C98.6379 48.8835 105.735 55.0126 114.49 55.0126Z" fill="#486D54"/>
<path d="M110.359 55.7119C114.865 55.7119 118.518 52.0589 118.518 47.5526C118.518 43.0463 114.865 39.3932 110.359 39.3932C105.853 39.3932 102.2 43.0463 102.2 47.5526C102.2 52.0589 105.853 55.7119 110.359 55.7119Z" fill="#486D54"/>
<path d="M107.963 147.757C54.4868 147.511 27.561 131.192 20.2176 117.166C16.928 110.846 13.0166 99.4616 10.8667 87.4557C9.72701 81.1354 8.97583 74.6857 8.97583 68.6244C9.98603 68.1193 10.8667 67.7437 11.8899 67.2386C15.05 65.5938 18.3396 64.0785 21.6293 62.8093C28.2086 60.2838 35.0339 58.5094 41.9888 58.0043C42.8695 57.8748 43.7631 57.8748 44.6438 57.8748C60.3149 57.4992 77.0092 65.4643 82.6949 80.1252C85.596 87.5852 85.4794 96.0554 89.3907 103.14C93.4315 110.341 101.021 114.77 105.58 121.725C110.488 129.301 110.994 139.157 107.963 147.757Z" fill="#486D54"/>
<path d="M45.7706 80.7469C45.3173 81.8348 42.9342 81.8996 40.4346 80.8635C37.935 79.8274 36.2772 78.1178 36.7176 77.0299C37.1709 75.942 39.5539 75.8772 42.0535 76.9133C44.5531 77.9494 46.2239 79.659 45.7706 80.7469Z" fill="#486D54"/>
<path d="M53.1529 113.281C52.6996 114.369 50.3165 114.433 47.8169 113.397C45.3173 112.374 43.6595 110.652 44.0999 109.564C44.5532 108.476 46.9362 108.411 49.4358 109.447C51.9354 110.47 53.6062 112.193 53.1529 113.281Z" fill="#486D54"/>
<path d="M60.8978 97.8944C60.4445 98.9823 58.0614 99.0471 55.5618 98.011C53.0622 96.9879 51.4044 95.2653 51.8448 94.1774C52.2981 93.0895 54.6811 93.0247 57.1807 94.0608C59.6933 95.084 61.3511 96.7936 60.8978 97.8944Z" fill="#486D54"/>
<path d="M74.924 112.102C74.4707 113.19 72.0876 113.255 69.588 112.219C67.0884 111.196 65.4307 109.473 65.871 108.385C66.3243 107.297 68.7073 107.232 71.207 108.269C73.7066 109.292 75.3773 111.001 74.924 112.102Z" fill="#486D54"/>
<path d="M39.0618 96.4698C38.6085 97.5577 36.2255 97.6225 33.7259 96.5864C31.2262 95.5632 29.5685 93.8407 30.0088 92.7528C30.4621 91.6649 32.8452 91.6001 35.3448 92.6362C37.8444 93.6594 39.5022 95.369 39.0618 96.4698Z" fill="#486D54"/>
<path d="M199.348 60.7371C208.103 60.7371 215.2 55.5416 215.2 49.1327C215.2 42.7237 208.103 37.5283 199.348 37.5283C190.593 37.5283 183.495 42.7237 183.495 49.1327C183.495 55.5416 190.593 60.7371 199.348 60.7371Z" fill="#486D54"/>
<path d="M35.5132 43.706C35.6427 50.7904 35.5132 58.7555 30.0736 63.677C27.5481 65.9565 23.8829 67.6013 22.7432 70.7614C21.979 72.6523 22.3676 74.8022 22.2381 76.8356C21.8625 82.1456 16.5524 86.6915 10.8538 87.4557C7.56419 70.1397 7.6937 51.425 18.1843 44.5997C22.6136 41.6986 28.1698 38.7845 34.3605 35.8705C35.1376 38.2665 35.3966 41.1805 35.5132 43.706Z" fill="#486D54"/>
<path d="M134.384 254.709V254.839C123.634 252.948 112.768 252.054 98.8581 251.679C74.3283 251.044 62.698 264.073 64.0967 274.939C65.612 287.58 55.251 288.46 51.4562 274.059C49.4358 286.453 41.2117 279.874 39.1913 266.728C39.8259 275.198 33.0006 283.798 29.0763 264.203C24.906 244.102 40.4605 235.127 54.1113 230.063C60.1854 227.667 71.4272 227.162 83.446 224.494L83.5756 224.623C105.178 228.664 125.667 244.219 134.384 254.709Z" fill="#486D54"/>
<path d="M169.676 262.027C197.56 267.583 247.643 224.39 231.571 187.906C261.255 229.338 268.767 238.209 312.931 251.705C279.801 268.904 176.476 289.173 176.476 289.173C176.476 289.173 171.438 274.628 169.676 262.027Z" fill="#486D54"/>
<path d="M271.254 244.983C224.227 244.983 167.539 272.906 167.539 319.285C167.539 365.65 208.711 452.476 321.544 452.476C434.376 452.476 432.446 388.276 420.44 348.736C408.434 309.196 344.765 244.983 271.254 244.983Z" fill="#486D54"/>
<path d="M404.069 429.047C379.63 439.175 320.637 447.762 205.02 418.531C101.151 392.278 7.90092 403.378 0.389146 448.876C-5.67208 485.554 59.9265 496.148 137.518 496.148C272.795 496.148 403.37 487.484 437.704 409.659C426.682 418.259 417.552 423.724 404.069 429.047Z" fill="#486D54"/>
<path d="M6.72226 456.478C14.234 410.98 107.484 399.868 211.353 426.133C326.983 455.364 385.963 446.778 410.403 436.65C415.959 434.461 420.686 432.182 425.206 429.734C430.089 423.569 434.453 417.015 437.691 409.659C426.682 418.259 417.539 423.724 404.069 429.047C379.63 439.175 320.637 447.762 205.02 418.531C101.15 392.278 7.90084 403.378 0.38906 448.876C-1.20395 458.55 2.29291 466.373 9.58451 472.706C6.85178 467.953 5.69911 462.604 6.72226 456.478Z" fill="#486D54"/>
<path d="M283.052 252.676C241.556 248.532 205.176 272.763 201.782 306.774C198.389 340.784 229.265 371.725 270.761 375.869C312.257 380.014 348.638 355.782 352.031 321.771C355.424 287.748 324.535 256.807 283.052 252.676Z" fill="#486D54"/>
<path d="M402.735 127.178C359.763 100.459 310.82 108.541 293.4 145.219C275.968 181.897 296.664 233.288 339.637 260.006C382.609 286.725 431.552 278.643 448.972 241.965C466.391 205.3 445.695 153.896 402.735 127.178Z" fill="#486D54"/>
</svg>
