<svg width="500" height="200" viewBox="0 0 500 200" fill="none" xmlns="http://www.w3.org/2000/svg">
<path d="M47.56 101.08C47.72 101.4 48 101.8 48.4 102.28C49.68 103.88 50.88 105.48 52 107.08C53.2 108.6 54.2 110.24 55 112C55.88 113.68 56.48 115.56 56.8 117.64C57.12 119.72 57.04 122.04 56.56 124.6C55.92 128.36 54.68 131.44 52.84 133.84C51.08 136.16 48.92 137.96 46.36 139.24C43.8 140.52 40.96 141.4 37.84 141.88C34.72 142.28 31.48 142.48 28.12 142.48C24.84 142.56 21.52 142.48 18.16 142.24C14.88 142 11.8 141.84 8.92 141.76C8.44 141.76 7.96 141.76 7.48 141.76C7.08 141.76 6.68 141.68 6.28 141.52C5.8 127.68 5.68 113.96 5.92 100.36C6.16 86.68 6.16 72.88 5.92 58.96L6.04 58.84C9.24 57.96 12.64 57.28 16.24 56.8C19.84 56.32 23.4 56.16 26.92 56.32C30.44 56.48 33.8 57 37 57.88C40.28 58.76 43.16 60.2 45.64 62.2C48.12 64.12 50.08 66.64 51.52 69.76C52.96 72.8 53.68 76.56 53.68 81.04C53.68 84.4 53.08 87.68 51.88 90.88C50.76 94.08 49.4 97.04 47.8 99.76C47.48 100.32 47.4 100.76 47.56 101.08ZM34.24 124.36C35.36 123.88 36.32 123.16 37.12 122.2C38 121 38.4 119.56 38.32 117.88C38.32 116.2 38.04 114.68 37.48 113.32C37 112.36 36.28 111.52 35.32 110.8C34.36 110 33.36 109.48 32.32 109.24C30.8 108.84 29.24 108.64 27.64 108.64C26.04 108.56 24.48 108.44 22.96 108.28C22.64 109.48 22.36 110.84 22.12 112.36C21.88 113.88 21.72 115.44 21.64 117.04C21.64 118.56 21.76 120.04 22 121.48C22.24 122.92 22.68 124.12 23.32 125.08L23.56 125.2C24.68 125.2 25.84 125.24 27.04 125.32C28.32 125.32 29.56 125.28 30.76 125.2C32.04 125.04 33.2 124.76 34.24 124.36ZM34.36 90.76C35.48 90.12 36.36 89.2 37 88C37.56 87.04 38.04 85.92 38.44 84.64C38.84 83.36 38.72 82.08 38.08 80.8C37.44 79.52 36.6 78.56 35.56 77.92C34.6 77.2 33.48 76.68 32.2 76.36C30.6 76.04 28.88 75.88 27.04 75.88C25.28 75.8 23.8 76.08 22.6 76.72C22.76 78.56 22.68 80.8 22.36 83.44C22.12 86.08 22.36 88.8 23.08 91.6C24.28 91.76 25.56 91.88 26.92 91.96C28.28 92.04 29.6 92 30.88 91.84C32.16 91.68 33.32 91.32 34.36 90.76ZM73.6675 57.64C75.5875 57.72 78.3475 57.72 81.9475 57.64H84.8275V58.12C84.8275 65 84.7075 71.92 84.4675 78.88C84.3075 85.84 84.1475 92.84 83.9875 99.88C83.9075 106.84 83.9075 113.8 83.9875 120.76C84.0675 127.72 84.3075 134.6 84.7075 141.4C84.0675 142.04 82.7075 142.4 80.6275 142.48C78.6275 142.64 76.4275 142.68 74.0275 142.6C71.7075 142.52 69.4675 142.4 67.3075 142.24C65.1475 142.16 63.6675 142.24 62.8675 142.48C63.4275 135.28 63.6675 128.04 63.5875 120.76C63.5075 113.48 63.3475 106.28 63.1075 99.16C62.9475 91.96 62.8275 84.88 62.7475 77.92C62.7475 70.88 63.1075 64 63.8275 57.28V57.04C64.2275 56.96 64.9875 57 66.1075 57.16C67.3075 57.24 68.1875 57.28 68.7475 57.28C70.1875 57.36 71.8275 57.48 73.6675 57.64ZM129.079 125.56C134.199 125.8 139.479 125.84 144.919 125.68V125.92C145.079 128.48 145.119 131.16 145.039 133.96C144.959 136.68 144.599 139.24 143.959 141.64C135.799 141.56 127.479 141.68 118.999 142C110.599 142.24 102.519 142.04 94.7594 141.4C94.7594 134.44 94.6794 127.56 94.5194 120.76C94.3594 113.88 94.2394 107.04 94.1594 100.24C94.0794 93.44 94.0794 86.64 94.1594 79.84C94.2394 73.04 94.4794 66.2 94.8794 59.32C97.9994 59.16 101.359 59.04 104.959 58.96C108.639 58.8 112.319 58.68 115.999 58.6C119.679 58.52 123.239 58.44 126.679 58.36C130.119 58.28 133.159 58.24 135.799 58.24C138.439 58.24 140.559 58.28 142.159 58.36C143.759 58.44 144.559 58.52 144.559 58.6C144.959 61.4 145.039 64.24 144.799 67.12C144.639 70 144.559 72.84 144.559 75.64V75.76C141.999 76.32 139.399 76.68 136.759 76.84C134.199 76.92 131.599 76.96 128.959 76.96C126.319 76.88 123.679 76.84 121.039 76.84C118.399 76.84 115.759 76.96 113.119 77.2H112.759L112.639 77.32C112.719 79.64 112.599 82.04 112.279 84.52C112.039 86.92 112.199 89.2 112.759 91.36L112.879 91.48C115.279 91.64 117.719 91.72 120.199 91.72C122.679 91.72 125.159 91.76 127.639 91.84V91.96C128.039 94.68 128.159 97.4 127.999 100.12C127.839 102.84 127.799 105.68 127.879 108.64C126.679 108.96 125.319 109.16 123.799 109.24C122.279 109.24 120.799 109.24 119.359 109.24C117.999 109.24 116.759 109.28 115.639 109.36C114.519 109.44 113.759 109.64 113.359 109.96C112.959 112.28 112.799 114.88 112.879 117.76C113.039 120.64 113.199 123.04 113.359 124.96L113.479 125.08C118.759 125.08 123.959 125.24 129.079 125.56ZM201.253 70.24C203.333 74.16 203.813 79.12 202.693 85.12H202.573C199.773 85.6 196.773 85.92 193.573 86.08C190.373 86.16 187.373 85.8 184.573 85C185.053 82.84 184.613 81.04 183.253 79.6C181.893 78.16 180.253 77.24 178.333 76.84C176.413 76.44 174.533 76.64 172.693 77.44C170.933 78.24 169.893 79.76 169.573 82C169.413 82.56 169.333 83.12 169.333 83.68C169.413 84.16 169.493 84.68 169.573 85.24C170.213 87.16 171.253 88.44 172.693 89.08C174.133 89.72 175.693 90.16 177.373 90.4C181.613 90.88 185.533 92.24 189.133 94.48C192.813 96.72 195.813 99.56 198.133 103C199.573 104.84 200.653 106.84 201.373 109C202.093 111.08 202.493 113.24 202.573 115.48C202.733 117.72 202.573 120 202.093 122.32C201.693 124.56 201.013 126.72 200.053 128.8C199.093 131.28 197.813 133.4 196.213 135.16C194.613 136.92 192.773 138.36 190.693 139.48C188.693 140.6 186.493 141.44 184.093 142C181.773 142.48 179.373 142.68 176.893 142.6C173.373 142.52 169.853 141.92 166.333 140.8C162.893 139.6 159.813 137.96 157.093 135.88C154.373 133.8 152.213 131.28 150.613 128.32C149.013 125.28 148.333 121.84 148.573 118V117.64V117.28C151.373 116.88 154.453 116.8 157.813 117.04C161.173 117.2 164.213 117.24 166.933 117.16C167.093 119.72 168.093 121.64 169.933 122.92C171.853 124.2 173.853 124.84 175.933 124.84C178.093 124.76 179.933 124.04 181.453 122.68C183.053 121.32 183.613 119.24 183.133 116.44C182.893 114.52 182.173 113 180.973 111.88C179.773 110.68 178.333 109.72 176.653 109C175.053 108.28 173.293 107.76 171.373 107.44C169.453 107.04 167.653 106.68 165.973 106.36C164.373 106.04 162.893 105.52 161.533 104.8C160.173 104.08 158.933 103.24 157.813 102.28C154.133 98.76 151.733 94.88 150.613 90.64C149.573 86.4 149.533 82.28 150.493 78.28C151.453 74.28 153.253 70.64 155.893 67.36C158.613 64.08 161.893 61.64 165.733 60.04C167.653 59.24 169.773 58.72 172.093 58.48C174.413 58.16 176.733 58.08 179.053 58.24C181.453 58.32 183.773 58.64 186.013 59.2C188.333 59.76 190.453 60.48 192.373 61.36C196.213 63.36 199.173 66.32 201.253 70.24ZM251.935 101.08C252.095 101.4 252.375 101.8 252.775 102.28C254.055 103.88 255.255 105.48 256.375 107.08C257.575 108.6 258.575 110.24 259.375 112C260.255 113.68 260.855 115.56 261.175 117.64C261.495 119.72 261.415 122.04 260.935 124.6C260.295 128.36 259.055 131.44 257.215 133.84C255.455 136.16 253.295 137.96 250.735 139.24C248.175 140.52 245.335 141.4 242.215 141.88C239.095 142.28 235.855 142.48 232.495 142.48C229.215 142.56 225.895 142.48 222.535 142.24C219.255 142 216.175 141.84 213.295 141.76C212.815 141.76 212.335 141.76 211.855 141.76C211.455 141.76 211.055 141.68 210.655 141.52C210.175 127.68 210.055 113.96 210.295 100.36C210.535 86.68 210.535 72.88 210.295 58.96L210.415 58.84C213.615 57.96 217.015 57.28 220.615 56.8C224.215 56.32 227.775 56.16 231.295 56.32C234.815 56.48 238.175 57 241.375 57.88C244.655 58.76 247.535 60.2 250.015 62.2C252.495 64.12 254.455 66.64 255.895 69.76C257.335 72.8 258.055 76.56 258.055 81.04C258.055 84.4 257.455 87.68 256.255 90.88C255.135 94.08 253.775 97.04 252.175 99.76C251.855 100.32 251.775 100.76 251.935 101.08ZM238.615 124.36C239.735 123.88 240.695 123.16 241.495 122.2C242.375 121 242.775 119.56 242.695 117.88C242.695 116.2 242.415 114.68 241.855 113.32C241.375 112.36 240.655 111.52 239.695 110.8C238.735 110 237.735 109.48 236.695 109.24C235.175 108.84 233.615 108.64 232.015 108.64C230.415 108.56 228.855 108.44 227.335 108.28C227.015 109.48 226.735 110.84 226.495 112.36C226.255 113.88 226.095 115.44 226.015 117.04C226.015 118.56 226.135 120.04 226.375 121.48C226.615 122.92 227.055 124.12 227.695 125.08L227.935 125.2C229.055 125.2 230.215 125.24 231.415 125.32C232.695 125.32 233.935 125.28 235.135 125.2C236.415 125.04 237.575 124.76 238.615 124.36ZM238.735 90.76C239.855 90.12 240.735 89.2 241.375 88C241.935 87.04 242.415 85.92 242.815 84.64C243.215 83.36 243.095 82.08 242.455 80.8C241.815 79.52 240.975 78.56 239.935 77.92C238.975 77.2 237.855 76.68 236.575 76.36C234.975 76.04 233.255 75.88 231.415 75.88C229.655 75.8 228.175 76.08 226.975 76.72C227.135 78.56 227.055 80.8 226.735 83.44C226.495 86.08 226.735 88.8 227.455 91.6C228.655 91.76 229.935 91.88 231.295 91.96C232.655 92.04 233.975 92 235.255 91.84C236.535 91.68 237.695 91.32 238.735 90.76ZM310.083 63.64C312.403 65.72 314.043 68.16 315.003 70.96C315.563 72.16 315.963 73.4 316.203 74.68C316.523 75.88 316.763 77.12 316.923 78.4C317.083 80.4 317.163 82.4 317.163 84.4C317.243 86.32 317.243 88.28 317.163 90.28C316.923 94.52 316.843 98.64 316.923 102.64C317.003 106.64 316.883 110.72 316.563 114.88L316.203 118.84C316.043 121.64 315.603 124.48 314.883 127.36C314.163 130.16 313.083 132.72 311.643 135.04C310.283 136.96 308.483 138.52 306.243 139.72C304.083 140.84 301.763 141.72 299.283 142.36C297.043 143 294.763 143.4 292.443 143.56C290.203 143.72 287.923 143.72 285.603 143.56C283.923 143.4 282.283 143.16 280.683 142.84C279.163 142.6 277.683 142.16 276.243 141.52C274.883 140.88 273.643 140.08 272.523 139.12C271.403 138.08 270.483 136.76 269.763 135.16C268.643 133.16 267.883 131.04 267.483 128.8C267.163 126.48 266.963 124.16 266.883 121.84C266.643 115.6 266.363 109.36 266.043 103.12C265.803 96.8 265.883 90.48 266.283 84.16C266.363 80.56 266.803 76.96 267.603 73.36C268.483 69.68 270.163 66.44 272.643 63.64C273.443 62.84 274.363 62.12 275.403 61.48C278.043 60.2 280.883 59.28 283.923 58.72C287.043 58.08 290.123 57.84 293.163 58C296.283 58.16 299.283 58.72 302.163 59.68C305.123 60.56 307.763 61.88 310.083 63.64ZM302.163 106V100.24L301.923 92.08C301.923 92 301.843 91.2 301.683 89.68C301.603 88.08 301.523 86.6 301.443 85.24C301.283 83 300.643 80.96 299.523 79.12C298.483 77.28 297.043 75.92 295.203 75.04C293.603 74.4 291.963 74.28 290.283 74.68C288.603 75.08 287.123 75.76 285.843 76.72C283.043 78.88 281.163 81.64 280.202 85C279.563 88.04 279.163 91.24 279.003 94.6C278.923 97.96 278.963 101.32 279.123 104.68C279.523 107.48 279.803 110.36 279.963 113.32C280.123 116.2 280.603 118.96 281.403 121.6C282.203 123.2 283.363 124.44 284.883 125.32C286.403 126.2 288.043 126.72 289.803 126.88C291.563 126.96 293.323 126.72 295.083 126.16C296.843 125.52 298.323 124.52 299.523 123.16C300.243 122.2 300.763 121.44 301.083 120.88C301.403 120.24 301.603 119.56 301.683 118.84C301.763 118.12 301.763 117.28 301.683 116.32C301.683 115.28 301.763 113.92 301.923 112.24C302.003 110.64 302.043 109.24 302.043 108.04C302.123 106.84 302.163 106.16 302.163 106ZM374.69 70.24C376.77 74.16 377.25 79.12 376.13 85.12H376.01C373.21 85.6 370.21 85.92 367.01 86.08C363.81 86.16 360.81 85.8 358.01 85C358.49 82.84 358.05 81.04 356.69 79.6C355.33 78.16 353.69 77.24 351.77 76.84C349.85 76.44 347.97 76.64 346.13 77.44C344.37 78.24 343.33 79.76 343.01 82C342.85 82.56 342.77 83.12 342.77 83.68C342.85 84.16 342.93 84.68 343.01 85.24C343.65 87.16 344.69 88.44 346.13 89.08C347.57 89.72 349.13 90.16 350.81 90.4C355.05 90.88 358.97 92.24 362.57 94.48C366.25 96.72 369.25 99.56 371.57 103C373.01 104.84 374.09 106.84 374.81 109C375.53 111.08 375.93 113.24 376.01 115.48C376.17 117.72 376.01 120 375.53 122.32C375.13 124.56 374.45 126.72 373.49 128.8C372.53 131.28 371.25 133.4 369.65 135.16C368.05 136.92 366.21 138.36 364.13 139.48C362.13 140.6 359.93 141.44 357.53 142C355.21 142.48 352.81 142.68 350.33 142.6C346.81 142.52 343.29 141.92 339.77 140.8C336.33 139.6 333.25 137.96 330.53 135.88C327.81 133.8 325.65 131.28 324.05 128.32C322.45 125.28 321.77 121.84 322.01 118V117.64V117.28C324.81 116.88 327.89 116.8 331.25 117.04C334.61 117.2 337.65 117.24 340.37 117.16C340.53 119.72 341.53 121.64 343.37 122.92C345.29 124.2 347.29 124.84 349.37 124.84C351.53 124.76 353.37 124.04 354.89 122.68C356.49 121.32 357.05 119.24 356.57 116.44C356.33 114.52 355.61 113 354.41 111.88C353.21 110.68 351.77 109.72 350.09 109C348.49 108.28 346.73 107.76 344.81 107.44C342.89 107.04 341.09 106.68 339.41 106.36C337.81 106.04 336.33 105.52 334.97 104.8C333.61 104.08 332.37 103.24 331.25 102.28C327.57 98.76 325.17 94.88 324.05 90.64C323.01 86.4 322.97 82.28 323.93 78.28C324.89 74.28 326.69 70.64 329.33 67.36C332.05 64.08 335.33 61.64 339.17 60.04C341.09 59.24 343.21 58.72 345.53 58.48C347.85 58.16 350.17 58.08 352.49 58.24C354.89 58.32 357.21 58.64 359.45 59.2C361.77 59.76 363.89 60.48 365.81 61.36C369.65 63.36 372.61 66.32 374.69 70.24ZM404.613 75.64C403.493 75.88 402.613 76.32 401.973 76.96C401.813 77.12 401.653 77.4 401.493 77.8C401.413 78.12 401.333 78.36 401.253 78.52C401.093 78.76 400.933 80.16 400.773 82.72C400.693 85.28 400.613 88.32 400.533 91.84C400.453 95.36 400.413 99.04 400.413 102.88C400.413 106.64 400.533 109.92 400.773 112.72C401.013 115.04 401.613 117.32 402.573 119.56C403.613 121.72 405.293 123.12 407.613 123.76C409.373 123.92 411.013 123.68 412.533 123.04C414.133 122.32 415.333 121.16 416.133 119.56C417.013 117.72 417.373 115.8 417.213 113.8C417.133 111.72 417.293 109.68 417.693 107.68C418.813 107.84 420.053 107.88 421.413 107.8C422.853 107.72 424.293 107.68 425.733 107.68C427.173 107.68 428.573 107.72 429.933 107.8C431.373 107.88 432.653 108.08 433.773 108.4C435.133 112.56 435.493 116.72 434.853 120.88C434.213 124.96 432.813 128.64 430.653 131.92C428.493 135.2 425.653 137.92 422.133 140.08C418.693 142.16 414.773 143.24 410.373 143.32C407.493 143.72 404.533 143.72 401.493 143.32C398.453 143 395.613 142.24 392.973 141.04C390.333 139.76 388.093 138 386.253 135.76C384.493 133.52 383.453 130.72 383.133 127.36C382.973 124.48 382.853 121.48 382.772 118.36C382.693 115.24 382.613 111.76 382.533 107.92C382.533 104 382.533 99.6 382.533 94.72C382.613 89.76 382.693 84.04 382.772 77.56C382.613 76.2 382.653 74.84 382.893 73.48C383.213 72.04 383.613 70.72 384.093 69.52C384.813 67.44 385.693 65.52 386.732 63.76C387.853 62 389.173 60.44 390.693 59.08C391.573 58.44 392.533 57.92 393.573 57.52C394.613 57.04 395.693 56.64 396.813 56.32C400.493 55.12 404.133 54.64 407.733 54.88C411.333 55.12 414.693 55.96 417.813 57.4C421.013 58.76 423.893 60.6 426.453 62.92C429.013 65.24 431.053 67.92 432.573 70.96C434.093 73.92 435.013 77.16 435.333 80.68C435.653 84.2 435.173 87.8 433.893 91.48C430.933 92.12 428.013 92.36 425.133 92.2C422.333 91.96 419.413 91.56 416.373 91C416.133 89.48 415.973 87.76 415.893 85.84C415.893 83.92 415.693 82.16 415.293 80.56C414.893 78.88 414.133 77.52 413.013 76.48C411.973 75.44 410.293 74.96 407.973 75.04C406.933 75.2 405.813 75.4 404.613 75.64ZM486.366 57.16C487.886 57.16 489.246 57.2 490.446 57.28L493.686 141.28C492.326 141.52 490.846 141.68 489.246 141.76C487.726 141.84 486.206 141.88 484.686 141.88C483.246 141.88 481.806 141.88 480.366 141.88C479.006 141.88 477.846 141.92 476.886 142H476.766C476.366 139.36 476.086 136.64 475.926 133.84C475.846 130.96 475.766 128.12 475.686 125.32C475.686 122.52 475.646 119.72 475.566 116.92C475.486 114.12 475.286 111.44 474.966 108.88L474.846 108.76C472.526 108.36 470.206 108.16 467.886 108.16C465.566 108.16 463.246 108.44 460.926 109C460.686 111.8 460.566 114.56 460.566 117.28C460.646 120 460.726 122.72 460.806 125.44C460.886 128.16 460.886 130.84 460.806 133.48C460.806 136.04 460.606 138.6 460.206 141.16C459.246 141.72 457.966 142 456.366 142C454.766 142 453.166 141.92 451.566 141.76C449.966 141.6 448.446 141.48 447.006 141.4C445.646 141.32 444.606 141.48 443.886 141.88C443.726 139.64 443.526 136.6 443.286 132.76C443.126 128.84 442.966 124.48 442.806 119.68C442.646 114.8 442.486 109.64 442.326 104.2C442.246 98.76 442.166 93.32 442.086 87.88C442.006 82.36 441.966 77.08 441.966 72.04C442.046 66.92 442.126 62.32 442.206 58.24V58.12H442.326H442.566C443.766 58.36 445.006 58.44 446.286 58.36C447.646 58.28 448.966 58.2 450.246 58.12C451.606 58.04 452.926 58 454.206 58C455.486 58 456.686 58.16 457.806 58.48C458.526 64 458.886 69.36 458.886 74.56C458.886 79.76 459.366 84.92 460.326 90.04H460.446C462.446 90.52 464.606 90.68 466.926 90.52C469.246 90.28 471.406 90.08 473.406 89.92H473.526C474.006 84.4 474.246 79.24 474.246 74.44C474.326 69.64 474.246 64.36 474.006 58.6C474.966 58.28 476.126 58 477.486 57.76C478.926 57.52 480.406 57.36 481.926 57.28C483.446 57.12 484.926 57.08 486.366 57.16Z" fill="#F1F1F1"/>
<path d="M4.176 171.544C4.304 171.736 4.48 172.024 4.704 172.408C4.96 172.76 5.136 173.016 5.232 173.176C5.328 173.336 5.424 173.576 5.52 173.896C5.616 174.216 5.664 174.568 5.664 174.952C5.664 175.176 5.664 175.496 5.664 175.912C5.696 176.296 5.712 176.584 5.712 176.776C5.712 176.936 5.728 177.176 5.76 177.496C5.792 177.784 5.824 178.056 5.856 178.312C5.92 178.568 5.984 178.84 6.048 179.128C6.112 179.096 6.544 178.632 7.344 177.736C8.144 176.84 8.832 176.184 9.408 175.768C9.984 175.352 10.528 175.144 11.04 175.144C11.392 175.144 11.68 175.24 11.904 175.432C12.16 175.592 12.336 175.752 12.432 175.912C12.528 176.072 12.688 176.392 12.912 176.872C13.136 177.32 13.392 178.648 13.68 180.856C14 183.032 14.24 184.328 14.4 184.744C14.528 185.608 16.176 186.264 19.344 186.712C19.184 187.48 18.656 188.104 17.76 188.584C16.864 189.064 15.888 189.256 14.832 189.16C13.776 189.032 13.008 188.6 12.528 187.864C11.952 186.968 11.584 185.896 11.424 184.648C11.04 181.064 10.768 179.096 10.608 178.744C7.12 181.176 5.344 184.84 5.28 189.736C4.608 189.672 4.08 189.416 3.696 188.968C3.344 188.52 3.136 187.944 3.072 187.24C3.008 186.504 2.992 185.8 3.024 185.128C3.056 184.424 3.12 183.624 3.216 182.728C3.344 181.8 3.408 181.112 3.408 180.664C3.408 179.928 3.296 178.792 3.072 177.256C2.88 175.72 2.848 174.536 2.976 173.704C3.104 172.84 3.504 172.12 4.176 171.544ZM45.0263 179.512C45.0583 178.52 44.9623 177.608 44.7383 176.776C44.5143 175.944 44.0983 175.304 43.4903 174.856C42.8823 174.376 42.1463 174.28 41.2822 174.568C38.7543 175.432 36.6103 176.776 34.8503 178.6C34.2743 179.144 33.7463 179.256 33.2663 178.936C32.8183 178.584 32.5943 178.056 32.5943 177.352C32.5943 176.808 32.8823 176.28 33.4583 175.768C34.0663 175.224 34.7063 174.792 35.3783 174.472C36.0503 174.12 36.8663 173.736 37.8263 173.32C38.7863 172.872 39.4263 172.568 39.7463 172.408C40.5143 171.96 41.0903 171.656 41.4743 171.496C41.8903 171.336 42.3383 171.256 42.8183 171.256C43.3303 171.224 43.8583 171.336 44.4023 171.592C44.7863 171.752 45.1223 172.104 45.4103 172.648C47.2023 175.848 48.0983 178.904 48.0983 181.816C48.0983 182.136 48.4023 183.064 49.0103 184.6C49.6503 186.104 49.9703 187.064 49.9703 187.48C49.9703 187.96 49.8263 188.456 49.5383 188.968C49.2823 189.48 48.9623 189.736 48.5783 189.736C48.0983 189.704 47.6983 189.56 47.3783 189.304C47.0583 189.016 46.8183 188.728 46.6583 188.44C46.5303 188.12 46.3703 187.672 46.1783 187.096C45.7303 187.256 44.9783 187.56 43.9223 188.008C42.8663 188.456 42.0343 188.792 41.4263 189.016C40.8503 189.208 40.1143 189.464 39.2183 189.784C38.3543 190.072 37.5383 190.28 36.7703 190.408C36.0343 190.536 35.2982 190.6 34.5622 190.6C32.0982 190.6 30.4022 189.688 29.4742 187.864C29.3142 187.352 29.2182 186.904 29.1863 186.52C29.1863 186.104 29.3303 185.688 29.6182 185.272C29.9383 184.824 30.2583 184.456 30.5783 184.168C30.8982 183.848 31.2982 183.528 31.7782 183.208C32.2903 182.888 32.7383 182.616 33.1222 182.392C33.5383 182.168 33.9703 181.976 34.4183 181.816C36.6583 180.792 39.8583 180.072 44.0183 179.656C44.4663 179.592 44.8023 179.544 45.0263 179.512ZM32.1142 187.096C33.4263 187.448 34.6903 187.64 35.9063 187.672C37.1223 187.672 38.3543 187.496 39.6023 187.144C40.8823 186.792 42.0183 186.408 43.0103 185.992C44.0023 185.544 44.9303 185.032 45.7943 184.456C45.0903 183.4 43.9863 182.728 42.4823 182.44C41.0103 182.12 39.5382 182.152 38.0662 182.536C36.6263 182.888 35.3143 183.48 34.1303 184.312C32.9463 185.144 32.2743 186.072 32.1142 187.096ZM64.5645 189.16C62.9005 189.096 62.0685 188.152 62.0685 186.328C62.0685 185.88 62.1005 185.064 62.1645 183.88C62.2285 182.664 62.2445 181.592 62.2125 180.664C62.2125 179.736 62.1645 179 62.0685 178.456C61.9725 178.04 61.5885 177.464 60.9165 176.728C60.2445 175.96 59.9565 175.368 60.0525 174.952C60.1165 174.728 60.3885 174.472 60.8685 174.184C61.3805 173.864 61.6365 173.496 61.6365 173.08C61.7645 172.44 61.7005 171.32 61.4445 169.72C61.2205 168.088 61.2525 167.064 61.5405 166.648C61.7005 166.36 62.0045 166.216 62.4525 166.216C63.4445 166.216 64.0365 167.224 64.2285 169.24C64.3565 171.288 64.5165 172.424 64.7085 172.648C64.9005 172.904 65.2205 173.112 65.6685 173.272C66.1165 173.432 66.7085 173.56 67.4445 173.656C68.1805 173.752 68.7885 173.832 69.2685 173.896C69.7805 173.96 70.5005 174.024 71.4285 174.088C72.3565 174.152 72.9165 174.184 73.1085 174.184C70.0685 175.08 68.2925 175.592 67.7805 175.72C66.3725 176.008 65.5245 176.264 65.2365 176.488C64.6605 176.904 64.3725 177.656 64.3725 178.744C64.3725 180.504 64.4365 181.944 64.5645 183.064C64.7245 184.152 65.0285 185.24 65.4765 186.328C65.9245 186.2 66.3405 186.088 66.7245 185.992C67.1085 185.864 67.3645 185.784 67.4925 185.752C67.6525 185.688 67.8605 185.64 68.1165 185.608C68.4045 185.576 68.7885 185.56 69.2685 185.56C69.1405 186.456 68.5805 187.288 67.5885 188.056C66.5965 188.792 65.5885 189.16 64.5645 189.16ZM84.279 175.048C83.799 180.104 83.815 183.736 84.327 185.944C85.671 185.848 87.143 185.272 88.743 184.216C90.375 183.128 91.431 182.072 91.911 181.048C92.263 180.536 92.519 179.208 92.679 177.064C92.871 174.888 93.127 173.56 93.447 173.08C94.439 173.432 95.063 174.104 95.319 175.096C95.607 176.088 95.735 177.56 95.703 179.512C95.703 179.768 95.767 180.344 95.895 181.24C96.023 182.104 96.087 182.664 96.087 182.92C96.023 183.432 96.103 183.864 96.327 184.216C96.583 184.536 96.951 184.808 97.431 185.032C97.911 185.256 98.359 185.432 98.775 185.56C99.191 185.656 99.687 185.768 100.263 185.896C100.423 185.896 100.535 185.912 100.599 185.944C100.119 186.424 99.719 186.808 99.399 187.096C99.079 187.352 98.647 187.608 98.103 187.864C97.559 188.088 96.999 188.2 96.423 188.2C95.111 188.2 94.183 187.624 93.639 186.472C93.351 185.928 93.031 185.256 92.679 184.456C88.839 187.496 85.943 189.064 83.991 189.16C83.575 189.16 83.207 189.08 82.887 188.92C82.599 188.76 82.375 188.552 82.215 188.296C82.055 188.04 81.927 187.688 81.831 187.24C81.735 186.792 81.687 186.376 81.687 185.992C81.687 185.608 81.687 185.128 81.687 184.552C81.751 181.672 81.607 178.28 81.255 174.376C81.223 173.768 81.335 173.16 81.591 172.552C81.879 171.944 82.247 171.608 82.695 171.544C83.111 171.512 83.495 171.928 83.847 172.792C84.199 173.656 84.343 174.408 84.279 175.048ZM112.501 175.048C112.021 180.104 112.037 183.736 112.549 185.944C113.893 185.848 115.365 185.272 116.966 184.216C118.597 183.128 119.653 182.072 120.134 181.048C120.486 180.536 120.742 179.208 120.902 177.064C121.093 174.888 121.349 173.56 121.67 173.08C122.661 173.432 123.286 174.104 123.542 175.096C123.83 176.088 123.958 177.56 123.925 179.512C123.925 179.768 123.99 180.344 124.118 181.24C124.246 182.104 124.31 182.664 124.31 182.92C124.246 183.432 124.326 183.864 124.55 184.216C124.806 184.536 125.174 184.808 125.654 185.032C126.134 185.256 126.582 185.432 126.998 185.56C127.414 185.656 127.91 185.768 128.485 185.896C128.646 185.896 128.758 185.912 128.821 185.944C128.342 186.424 127.942 186.808 127.622 187.096C127.302 187.352 126.87 187.608 126.326 187.864C125.781 188.088 125.221 188.2 124.646 188.2C123.334 188.2 122.406 187.624 121.862 186.472C121.574 185.928 121.254 185.256 120.902 184.456C117.062 187.496 114.165 189.064 112.213 189.16C111.797 189.16 111.429 189.08 111.109 188.92C110.821 188.76 110.597 188.552 110.437 188.296C110.277 188.04 110.149 187.688 110.053 187.24C109.957 186.792 109.909 186.376 109.909 185.992C109.909 185.608 109.909 185.128 109.909 184.552C109.973 181.672 109.829 178.28 109.477 174.376C109.445 173.768 109.557 173.16 109.813 172.552C110.101 171.944 110.469 171.608 110.917 171.544C111.333 171.512 111.717 171.928 112.069 172.792C112.421 173.656 112.565 174.408 112.501 175.048ZM141.012 189.352C140.052 189.224 139.284 188.744 138.708 187.912C138.164 187.048 137.844 185.992 137.748 184.744C137.684 183.496 137.7 182.28 137.796 181.096C137.892 179.912 138.084 178.76 138.372 177.64C138.372 177.448 138.452 176.456 138.612 174.664C138.804 172.84 139.348 171.928 140.244 171.928C140.5 171.928 140.724 171.96 140.916 172.024C141.108 172.088 141.252 172.2 141.348 172.36C141.476 172.52 141.572 172.664 141.636 172.792C141.732 172.92 141.78 173.112 141.78 173.368C141.78 173.592 141.78 173.784 141.78 173.944C141.812 174.104 141.796 174.344 141.732 174.664C141.7 174.952 141.668 175.16 141.636 175.288C141.636 175.416 141.604 175.64 141.54 175.96C141.476 176.248 141.428 176.424 141.396 176.488C142.164 176.68 143.556 176.712 145.572 176.584C147.62 176.456 149.012 176.536 149.748 176.824C150.452 177.048 151.076 177.432 151.62 177.976C151.14 178.296 150.324 178.568 149.172 178.792C148.02 178.984 146.932 179.128 145.908 179.224C144.884 179.288 143.924 179.512 143.028 179.896C142.132 180.28 141.604 180.824 141.444 181.528C141.284 182.264 141.204 183.576 141.204 185.464C141.204 187.352 141.14 188.648 141.012 189.352ZM194.031 164.344C194.479 164.216 194.863 164.424 195.183 164.968C195.535 165.48 195.679 166.056 195.615 166.696C195.583 167.336 195.295 167.688 194.751 167.752C194.079 167.848 193.615 167.576 193.359 166.936C193.135 166.296 193.103 165.56 193.263 164.728C193.295 164.536 193.359 164.424 193.455 164.392C193.583 164.36 193.775 164.344 194.031 164.344ZM193.647 189.352C193.391 188.872 193.231 188.312 193.167 187.672C193.135 187.032 193.167 186.456 193.263 185.944C193.359 185.4 193.439 184.728 193.503 183.928C193.599 183.128 193.647 182.424 193.647 181.816C193.615 181.304 193.743 180.312 194.031 178.84C194.319 177.368 194.447 176.584 194.415 176.488C194.415 176.392 194.383 176.088 194.319 175.576C194.287 175.064 194.255 174.68 194.223 174.424C194.223 174.136 194.223 173.8 194.223 173.416C194.255 173.032 194.335 172.728 194.463 172.504C194.591 172.248 194.767 172.088 194.991 172.024C195.471 172.088 195.935 172.488 196.383 173.224C196.831 173.928 197.007 174.648 196.911 175.384C196.975 175.64 196.927 176.248 196.767 177.208C196.607 178.168 196.415 179.112 196.191 180.04C195.999 180.936 195.903 181.384 195.903 181.384C195.903 181.672 195.887 182.104 195.855 182.68C195.823 183.256 195.791 183.736 195.759 184.12C195.727 184.504 195.679 184.984 195.615 185.56C195.551 186.104 195.455 186.568 195.327 186.952C195.231 187.336 195.103 187.72 194.943 188.104C194.815 188.456 194.639 188.744 194.415 188.968C194.191 189.16 193.935 189.288 193.647 189.352ZM209.612 171.544C209.74 171.736 209.916 172.024 210.14 172.408C210.396 172.76 210.572 173.016 210.668 173.176C210.764 173.336 210.86 173.576 210.956 173.896C211.052 174.216 211.1 174.568 211.1 174.952C211.1 175.176 211.1 175.496 211.1 175.912C211.132 176.296 211.148 176.584 211.148 176.776C211.148 176.936 211.164 177.176 211.196 177.496C211.228 177.784 211.26 178.056 211.292 178.312C211.356 178.568 211.42 178.84 211.484 179.128C211.548 179.096 211.98 178.632 212.78 177.736C213.58 176.84 214.268 176.184 214.844 175.768C215.42 175.352 215.964 175.144 216.476 175.144C216.828 175.144 217.116 175.24 217.34 175.432C217.596 175.592 217.772 175.752 217.868 175.912C217.964 176.072 218.124 176.392 218.348 176.872C218.572 177.32 218.828 178.648 219.116 180.856C219.436 183.032 219.676 184.328 219.836 184.744C219.964 185.608 221.612 186.264 224.78 186.712C224.62 187.48 224.092 188.104 223.196 188.584C222.3 189.064 221.324 189.256 220.268 189.16C219.212 189.032 218.444 188.6 217.964 187.864C217.388 186.968 217.02 185.896 216.86 184.648C216.476 181.064 216.204 179.096 216.044 178.744C212.556 181.176 210.78 184.84 210.716 189.736C210.044 189.672 209.516 189.416 209.132 188.968C208.78 188.52 208.572 187.944 208.508 187.24C208.444 186.504 208.428 185.8 208.46 185.128C208.492 184.424 208.556 183.624 208.652 182.728C208.78 181.8 208.844 181.112 208.844 180.664C208.844 179.928 208.732 178.792 208.508 177.256C208.316 175.72 208.284 174.536 208.412 173.704C208.54 172.84 208.94 172.12 209.612 171.544ZM268.943 171.16C268.943 170.872 268.927 170.44 268.895 169.864C268.863 169.256 268.831 168.744 268.799 168.328C268.799 167.88 268.815 167.432 268.847 166.984C268.911 166.504 269.039 166.136 269.231 165.88C269.423 165.624 269.711 165.496 270.095 165.496C271.407 165.496 272.015 166.488 271.919 168.472C271.887 169.56 271.663 171.272 271.247 173.608C270.831 175.944 270.687 177.784 270.815 179.128C271.679 178.968 273.359 178.296 275.855 177.112C278.351 175.928 279.711 175.336 279.935 175.336C280.159 175.272 280.591 175.16 281.231 175C281.871 174.84 282.319 174.728 282.575 174.664C282.831 174.6 283.215 174.536 283.727 174.472C284.271 174.376 284.719 174.344 285.071 174.376C285.423 174.376 285.807 174.408 286.223 174.472C286.639 174.536 287.055 174.664 287.471 174.856C287.919 175.048 288.175 175.544 288.239 176.344C288.303 177.144 288.191 177.816 287.903 178.36C287.583 179.192 287.039 180.024 286.271 180.856C285.503 181.656 284.543 182.44 283.391 183.208C282.239 183.944 281.295 184.52 280.559 184.936C279.823 185.352 278.879 185.848 277.727 186.424C276.895 186.84 276.063 187.192 275.231 187.48C274.399 187.736 273.375 188.024 272.159 188.344C270.975 188.632 270.111 188.84 269.567 188.968C269.119 188.904 268.783 188.696 268.559 188.344C268.367 187.96 268.239 187.416 268.175 186.712L268.559 186.328C268.495 186.2 268.223 185.912 267.743 185.464C267.263 185.016 267.023 184.552 267.023 184.072C267.023 183.848 267.231 183.192 267.647 182.104C268.063 180.984 268.239 180.248 268.175 179.896C268.111 179.48 268.223 178.056 268.511 175.624C268.799 173.192 268.943 171.704 268.943 171.16ZM284.063 177.016C283.295 177.016 282.703 177.048 282.287 177.112C281.903 177.176 281.599 177.256 281.375 177.352C281.151 177.416 280.687 177.592 279.983 177.88C279.279 178.168 278.511 178.456 277.679 178.744C276.911 179.032 276.159 179.368 275.423 179.752C274.687 180.136 273.967 180.616 273.263 181.192C272.559 181.768 272.015 182.44 271.631 183.208C271.247 183.976 271.119 184.76 271.247 185.56C274.351 185.048 277.151 184.072 279.647 182.632C282.143 181.16 284.143 179.352 285.647 177.208C285.103 177.08 284.575 177.016 284.063 177.016ZM309.297 176.776C310.353 176.168 311.473 175.784 312.657 175.624C313.873 175.432 314.929 175.576 315.825 176.056C316.721 176.536 317.169 177.352 317.169 178.504C317.169 179.4 316.737 180.28 315.873 181.144C315.041 181.976 314.129 182.568 313.137 182.92C312.593 183.144 311.921 183.384 311.121 183.64C310.353 183.864 309.761 184.04 309.345 184.168C308.961 184.296 308.513 184.52 308.001 184.84C307.521 185.16 307.089 185.528 306.705 185.944C308.081 186.296 309.585 186.328 311.217 186.04C312.881 185.72 314.305 185.304 315.489 184.792C316.673 184.28 318.065 183.784 319.665 183.304C321.297 182.792 322.785 182.536 324.129 182.536C323.937 183.4 323.457 184.072 322.689 184.552C322.337 184.776 321.633 185.112 320.577 185.56C319.521 186.008 318.097 186.584 316.305 187.288C314.513 187.96 313.569 188.312 313.473 188.344C312.481 188.76 311.473 189.064 310.449 189.256C309.425 189.416 308.401 189.432 307.377 189.304C306.353 189.144 305.505 188.776 304.833 188.2C304.705 188.136 304.449 187.896 304.065 187.48C303.681 187.064 303.361 186.84 303.105 186.808C302.881 186.808 302.353 186.92 301.521 187.144C300.721 187.336 300.145 187.448 299.793 187.48C299.313 187.512 298.945 187.352 298.689 187C298.433 186.648 298.305 186.248 298.305 185.8C298.305 185.416 298.449 185.16 298.737 185.032C299.025 184.872 299.345 184.808 299.697 184.84C300.081 184.84 300.497 184.84 300.945 184.84C301.425 184.808 301.809 184.712 302.097 184.552C302.897 184.328 303.409 184.088 303.633 183.832C303.857 183.544 304.177 182.856 304.593 181.768C304.753 181.288 304.913 180.872 305.073 180.52C305.265 180.136 305.489 179.784 305.745 179.464C306.033 179.144 306.241 178.904 306.369 178.744C306.497 178.584 306.785 178.36 307.233 178.072C307.681 177.784 307.969 177.592 308.097 177.496C308.257 177.4 308.657 177.16 309.297 176.776ZM307.089 182.152C308.241 182.216 309.329 182.056 310.353 181.672C311.377 181.288 312.193 180.856 312.801 180.376C313.409 179.896 314.161 179.224 315.057 178.36C313.297 178.136 311.729 178.392 310.353 179.128C308.977 179.864 307.889 180.872 307.089 182.152ZM360.303 172.312C360.591 171.192 361.007 170.856 361.551 171.304C362.063 171.72 362.399 172.408 362.559 173.368C362.559 173.528 362.559 173.672 362.559 173.8C362.559 175.048 362.255 176.424 361.647 177.928C361.039 179.432 360.383 180.952 359.679 182.488C359.007 184.024 358.623 185.4 358.527 186.616C358.399 187.96 357.759 188.632 356.607 188.632C355.359 188.632 353.679 187.512 351.567 185.272C350.255 183.896 349.247 182.984 348.543 182.536C348.383 182.792 348.111 183.4 347.727 184.36C347.343 185.32 346.975 186.2 346.623 187C346.271 187.8 346.031 188.2 345.903 188.2C345.455 188.648 345.007 188.92 344.559 189.016C344.111 189.08 343.679 188.984 343.263 188.728C342.847 188.44 342.479 188.136 342.159 187.816C341.871 187.496 341.599 187.128 341.343 186.712L334.479 176.2C333.615 174.984 333.119 173.944 332.991 173.08C334.271 172.92 335.263 173.176 335.967 173.848C336.671 174.488 337.327 175.496 337.935 176.872C339.663 180.616 341.679 183.64 343.983 185.944C344.239 185.656 344.799 184.52 345.663 182.536C346.527 180.52 347.103 179.256 347.391 178.744C348.127 177.496 348.847 176.488 349.551 175.72C350.255 174.92 351.055 174.408 351.951 174.184C352.015 174.888 351.967 175.56 351.807 176.2C351.679 176.84 351.535 177.32 351.375 177.64C351.247 177.96 350.991 178.44 350.607 179.08C350.511 179.272 350.463 179.432 350.463 179.56C350.879 180.648 351.551 181.736 352.479 182.824C353.407 183.912 354.335 184.456 355.263 184.456C355.999 184.456 356.559 183.88 356.943 182.728C357.743 180.52 358.607 178.312 359.535 176.104C359.951 173.864 360.207 172.6 360.303 172.312ZM383.648 176.776C384.704 176.168 385.824 175.784 387.008 175.624C388.224 175.432 389.28 175.576 390.176 176.056C391.072 176.536 391.52 177.352 391.52 178.504C391.52 179.4 391.088 180.28 390.224 181.144C389.392 181.976 388.48 182.568 387.488 182.92C386.944 183.144 386.272 183.384 385.472 183.64C384.704 183.864 384.112 184.04 383.696 184.168C383.312 184.296 382.864 184.52 382.352 184.84C381.872 185.16 381.44 185.528 381.056 185.944C382.432 186.296 383.936 186.328 385.568 186.04C387.232 185.72 388.656 185.304 389.84 184.792C391.024 184.28 392.416 183.784 394.016 183.304C395.648 182.792 397.136 182.536 398.48 182.536C398.288 183.4 397.808 184.072 397.04 184.552C396.688 184.776 395.984 185.112 394.928 185.56C393.872 186.008 392.448 186.584 390.656 187.288C388.864 187.96 387.92 188.312 387.824 188.344C386.832 188.76 385.824 189.064 384.8 189.256C383.776 189.416 382.752 189.432 381.728 189.304C380.704 189.144 379.856 188.776 379.184 188.2C379.056 188.136 378.8 187.896 378.416 187.48C378.032 187.064 377.712 186.84 377.456 186.808C377.232 186.808 376.704 186.92 375.872 187.144C375.072 187.336 374.496 187.448 374.144 187.48C373.664 187.512 373.296 187.352 373.04 187C372.784 186.648 372.656 186.248 372.656 185.8C372.656 185.416 372.8 185.16 373.088 185.032C373.376 184.872 373.696 184.808 374.048 184.84C374.432 184.84 374.848 184.84 375.296 184.84C375.776 184.808 376.16 184.712 376.448 184.552C377.248 184.328 377.76 184.088 377.984 183.832C378.208 183.544 378.528 182.856 378.944 181.768C379.104 181.288 379.264 180.872 379.424 180.52C379.616 180.136 379.84 179.784 380.096 179.464C380.384 179.144 380.592 178.904 380.72 178.744C380.848 178.584 381.136 178.36 381.584 178.072C382.032 177.784 382.32 177.592 382.448 177.496C382.608 177.4 383.008 177.16 383.648 176.776ZM381.44 182.152C382.592 182.216 383.68 182.056 384.704 181.672C385.728 181.288 386.544 180.856 387.152 180.376C387.76 179.896 388.512 179.224 389.408 178.36C387.648 178.136 386.08 178.392 384.704 179.128C383.328 179.864 382.24 180.872 381.44 182.152ZM421.646 184.072C421.294 184.264 420.35 184.904 418.814 185.992C417.278 187.048 415.982 187.8 414.926 188.248C413.87 188.696 412.718 188.952 411.47 189.016C410.542 189.048 409.886 188.792 409.502 188.248C409.118 187.704 409.006 186.936 409.166 185.944C409.326 184.888 409.662 183.944 410.174 183.112C410.718 182.28 411.294 181.608 411.902 181.096C412.542 180.552 413.39 180.056 414.446 179.608C415.502 179.128 416.43 178.76 417.23 178.504C418.062 178.248 419.166 177.96 420.542 177.64C420.83 177.64 421.198 177.304 421.646 176.632C422.094 175.96 422.478 175.656 422.798 175.72C423.15 175.784 423.454 175.976 423.71 176.296C423.966 176.584 424.158 176.904 424.286 177.256C424.446 177.576 424.558 178.04 424.622 178.648C424.686 179.256 424.718 179.736 424.718 180.088C424.718 180.44 424.718 180.952 424.718 181.624C424.718 181.72 424.718 181.784 424.718 181.816C424.718 182.936 424.638 184.856 424.478 187.576C424.35 190.264 424.35 192.296 424.478 193.672C424.51 194.44 424.446 195.128 424.286 195.736C424.158 196.344 423.95 196.856 423.662 197.272C423.406 197.72 423.022 198.088 422.51 198.376C421.998 198.664 421.486 198.888 420.974 199.048C420.462 199.208 419.822 199.336 419.054 199.432C418.318 199.528 417.646 199.576 417.038 199.576C416.462 199.608 415.742 199.624 414.878 199.624C413.118 199.624 411.678 199.416 410.558 199C409.47 198.616 408.798 197.864 408.542 196.744C408.574 196.2 408.942 195.688 409.646 195.208C410.35 194.728 411.118 194.344 411.95 194.056C412.814 193.8 413.662 193.608 414.494 193.48L411.806 196.168C413.214 196.776 414.718 197.032 416.318 196.936C417.95 196.872 419.358 196.488 420.542 195.784C421.342 195.304 421.87 194.296 422.126 192.76C422.382 191.224 422.446 189.736 422.318 188.296C422.19 186.856 421.966 185.448 421.646 184.072ZM411.038 186.328C412.51 186.552 414.03 186.408 415.598 185.896C417.166 185.352 418.51 184.568 419.63 183.544C420.75 182.488 421.422 181.4 421.646 180.28C419.438 179.768 417.214 180.184 414.974 181.528C412.766 182.84 411.454 184.44 411.038 186.328ZM436.452 164.344C436.9 164.216 437.284 164.424 437.604 164.968C437.956 165.48 438.1 166.056 438.036 166.696C438.004 167.336 437.716 167.688 437.172 167.752C436.5 167.848 436.036 167.576 435.78 166.936C435.556 166.296 435.524 165.56 435.684 164.728C435.716 164.536 435.78 164.424 435.876 164.392C436.004 164.36 436.196 164.344 436.452 164.344ZM436.068 189.352C435.812 188.872 435.652 188.312 435.588 187.672C435.556 187.032 435.588 186.456 435.684 185.944C435.78 185.4 435.86 184.728 435.924 183.928C436.02 183.128 436.068 182.424 436.068 181.816C436.036 181.304 436.164 180.312 436.452 178.84C436.74 177.368 436.868 176.584 436.836 176.488C436.836 176.392 436.804 176.088 436.74 175.576C436.708 175.064 436.676 174.68 436.644 174.424C436.644 174.136 436.644 173.8 436.644 173.416C436.676 173.032 436.756 172.728 436.884 172.504C437.012 172.248 437.188 172.088 437.412 172.024C437.892 172.088 438.356 172.488 438.804 173.224C439.252 173.928 439.428 174.648 439.332 175.384C439.396 175.64 439.348 176.248 439.188 177.208C439.028 178.168 438.836 179.112 438.612 180.04C438.42 180.936 438.324 181.384 438.324 181.384C438.324 181.672 438.308 182.104 438.276 182.68C438.244 183.256 438.212 183.736 438.18 184.12C438.148 184.504 438.1 184.984 438.036 185.56C437.972 186.104 437.876 186.568 437.748 186.952C437.652 187.336 437.524 187.72 437.364 188.104C437.236 188.456 437.06 188.744 436.836 188.968C436.612 189.16 436.356 189.288 436.068 189.352ZM452.033 171.544C452.161 171.736 452.337 172.024 452.561 172.408C452.817 172.76 452.993 173.016 453.089 173.176C453.185 173.336 453.281 173.576 453.377 173.896C453.473 174.216 453.521 174.568 453.521 174.952C453.521 175.176 453.521 175.496 453.521 175.912C453.553 176.296 453.569 176.584 453.569 176.776C453.569 176.936 453.585 177.176 453.617 177.496C453.649 177.784 453.681 178.056 453.713 178.312C453.777 178.568 453.841 178.84 453.905 179.128C453.969 179.096 454.401 178.632 455.201 177.736C456.001 176.84 456.689 176.184 457.265 175.768C457.841 175.352 458.385 175.144 458.897 175.144C459.249 175.144 459.537 175.24 459.761 175.432C460.017 175.592 460.193 175.752 460.289 175.912C460.385 176.072 460.545 176.392 460.769 176.872C460.993 177.32 461.249 178.648 461.537 180.856C461.857 183.032 462.097 184.328 462.257 184.744C462.385 185.608 464.033 186.264 467.201 186.712C467.041 187.48 466.513 188.104 465.617 188.584C464.721 189.064 463.745 189.256 462.689 189.16C461.633 189.032 460.865 188.6 460.385 187.864C459.809 186.968 459.441 185.896 459.281 184.648C458.897 181.064 458.625 179.096 458.465 178.744C454.977 181.176 453.201 184.84 453.137 189.736C452.465 189.672 451.937 189.416 451.553 188.968C451.201 188.52 450.993 187.944 450.929 187.24C450.865 186.504 450.849 185.8 450.881 185.128C450.913 184.424 450.977 183.624 451.073 182.728C451.201 181.8 451.265 181.112 451.265 180.664C451.265 179.928 451.153 178.792 450.929 177.256C450.737 175.72 450.705 174.536 450.833 173.704C450.961 172.84 451.361 172.12 452.033 171.544ZM489.907 184.072C489.555 184.264 488.611 184.904 487.075 185.992C485.539 187.048 484.243 187.8 483.187 188.248C482.131 188.696 480.979 188.952 479.731 189.016C478.803 189.048 478.147 188.792 477.763 188.248C477.379 187.704 477.267 186.936 477.427 185.944C477.587 184.888 477.923 183.944 478.435 183.112C478.979 182.28 479.555 181.608 480.163 181.096C480.803 180.552 481.651 180.056 482.707 179.608C483.763 179.128 484.691 178.76 485.491 178.504C486.323 178.248 487.427 177.96 488.803 177.64C489.091 177.64 489.459 177.304 489.907 176.632C490.355 175.96 490.739 175.656 491.059 175.72C491.411 175.784 491.715 175.976 491.971 176.296C492.227 176.584 492.419 176.904 492.547 177.256C492.707 177.576 492.819 178.04 492.883 178.648C492.947 179.256 492.979 179.736 492.979 180.088C492.979 180.44 492.979 180.952 492.979 181.624C492.979 181.72 492.979 181.784 492.979 181.816C492.979 182.936 492.899 184.856 492.739 187.576C492.611 190.264 492.611 192.296 492.739 193.672C492.771 194.44 492.707 195.128 492.547 195.736C492.419 196.344 492.211 196.856 491.923 197.272C491.667 197.72 491.283 198.088 490.771 198.376C490.259 198.664 489.747 198.888 489.235 199.048C488.723 199.208 488.083 199.336 487.315 199.432C486.579 199.528 485.907 199.576 485.299 199.576C484.723 199.608 484.003 199.624 483.139 199.624C481.379 199.624 479.939 199.416 478.819 199C477.731 198.616 477.059 197.864 476.803 196.744C476.835 196.2 477.203 195.688 477.907 195.208C478.611 194.728 479.379 194.344 480.211 194.056C481.075 193.8 481.923 193.608 482.755 193.48L480.067 196.168C481.475 196.776 482.979 197.032 484.579 196.936C486.211 196.872 487.619 196.488 488.803 195.784C489.603 195.304 490.131 194.296 490.387 192.76C490.643 191.224 490.707 189.736 490.579 188.296C490.451 186.856 490.227 185.448 489.907 184.072ZM479.299 186.328C480.771 186.552 482.291 186.408 483.859 185.896C485.427 185.352 486.771 184.568 487.891 183.544C489.011 182.488 489.683 181.4 489.907 180.28C487.699 179.768 485.475 180.184 483.235 181.528C481.027 182.84 479.715 184.44 479.299 186.328Z" fill="#F1F1F1"/>
<path d="M83.65 43.75C83.0833 43.6167 82.6 43.3167 82.2 42.85C81.8333 42.3833 81.5667 41.7833 81.4 41.05C81.2667 40.3167 81.1833 39.6167 81.15 38.95C81.1167 38.2833 81.0833 37.4833 81.05 36.55C81.0167 35.5833 80.9667 34.8333 80.9 34.3C80.5333 34.5 79.3833 35.15 77.45 36.25C75.55 37.35 74.0667 38.15 73 38.65C71.0667 39.55 69.35 40.0333 67.85 40.1C67.0167 40.1333 66.2167 39.8667 65.45 39.3C64.6833 38.7 64.2833 38.0333 64.25 37.3C64.25 36.1667 65.1833 35.0167 67.05 33.85C67.75 33.4167 68.7833 32.75 70.15 31.85C71.55 30.9167 72.5667 30.2667 73.2 29.9C73.8333 29.5 74.6833 29.0333 75.75 28.5C76.8167 27.9667 77.8833 27.5333 78.95 27.2C80.2167 26.7333 81.0167 26.1833 81.35 25.55C81.7167 24.9167 81.8333 23.75 81.7 22.05C81.7 21.9167 81.6833 21.65 81.65 21.25C81.65 20.8167 81.6333 20.4833 81.6 20.25C81.6 20.0167 81.6 19.7167 81.6 19.35C81.6 18.95 81.6167 18.6333 81.65 18.4C81.7167 18.1667 81.7833 17.9333 81.85 17.7C81.95 17.4333 82.0833 17.25 82.25 17.15C82.45 17.0167 82.6667 16.9333 82.9 16.9C83.3667 16.8667 83.7167 16.9667 83.95 17.2C84.2167 17.4 84.3667 17.7333 84.4 18.2C84.4333 18.6667 84.4333 19.0667 84.4 19.4C84.4 19.7333 84.35 20.2333 84.25 20.9C84.15 21.5333 84.1 21.9167 84.1 22.05C83.9 23.8167 83.7833 25.8 83.75 28C83.75 30.2 83.7833 32.7167 83.85 35.55C83.9167 38.3833 83.95 40.4 83.95 41.6C83.95 42.3667 83.85 43.0833 83.65 43.75ZM67.5 37.05C68.4667 37.2167 69.45 37.1667 70.45 36.9C71.45 36.6333 72.6667 36.15 74.1 35.45C75.5667 34.75 76.3833 34.3667 76.55 34.3C76.7833 34.2 77.15 34.0667 77.65 33.9C78.1833 33.7333 78.6167 33.6 78.95 33.5C79.2833 33.3667 79.6333 33.1833 80 32.95C80.3667 32.7167 80.65 32.45 80.85 32.15C81.05 31.8167 81.15 31.4333 81.15 31C81.15 30.5333 81.0667 30.05 80.9 29.55C76.6 30.3833 72.1333 32.8833 67.5 37.05ZM97.9109 27.1C99.0109 26.4667 100.178 26.0667 101.411 25.9C102.678 25.7 103.778 25.85 104.711 26.35C105.644 26.85 106.111 27.7 106.111 28.9C106.111 29.8333 105.661 30.75 104.761 31.65C103.894 32.5167 102.944 33.1333 101.911 33.5C101.344 33.7333 100.644 33.9833 99.8109 34.25C99.0109 34.4833 98.3943 34.6667 97.9609 34.8C97.5609 34.9333 97.0943 35.1667 96.5609 35.5C96.0609 35.8333 95.6109 36.2167 95.2109 36.65C96.6443 37.0167 98.2109 37.05 99.9109 36.75C101.644 36.4167 103.128 35.9833 104.361 35.45C105.594 34.9167 107.044 34.4 108.711 33.9C110.411 33.3667 111.961 33.1 113.361 33.1C113.161 34 112.661 34.7 111.861 35.2C111.494 35.4333 110.761 35.7833 109.661 36.25C108.561 36.7167 107.078 37.3167 105.211 38.05C103.344 38.75 102.361 39.1167 102.261 39.15C101.228 39.5833 100.178 39.9 99.1109 40.1C98.0443 40.2667 96.9776 40.2833 95.9109 40.15C94.8443 39.9833 93.9609 39.6 93.2609 39C93.1276 38.9333 92.8609 38.6833 92.4609 38.25C92.0609 37.8167 91.7276 37.5833 91.4609 37.55C91.2276 37.55 90.6776 37.6667 89.8109 37.9C88.9776 38.1 88.3776 38.2167 88.0109 38.25C87.5109 38.2833 87.1276 38.1167 86.8609 37.75C86.5943 37.3833 86.4609 36.9667 86.4609 36.5C86.4609 36.1 86.6109 35.8333 86.9109 35.7C87.2109 35.5333 87.5443 35.4667 87.9109 35.5C88.3109 35.5 88.7443 35.5 89.2109 35.5C89.7109 35.4667 90.1109 35.3667 90.4109 35.2C91.2443 34.9667 91.7776 34.7167 92.0109 34.45C92.2443 34.15 92.5776 33.4333 93.0109 32.3C93.1776 31.8 93.3443 31.3667 93.5109 31C93.7109 30.6 93.9443 30.2333 94.2109 29.9C94.5109 29.5667 94.7276 29.3167 94.8609 29.15C94.9943 28.9833 95.2943 28.75 95.7609 28.45C96.2276 28.15 96.5276 27.95 96.6609 27.85C96.8276 27.75 97.2443 27.5 97.9109 27.1ZM95.6109 32.7C96.8109 32.7667 97.9443 32.6 99.0109 32.2C100.078 31.8 100.928 31.35 101.561 30.85C102.194 30.35 102.978 29.65 103.911 28.75C102.078 28.5167 100.444 28.7833 99.0109 29.55C97.5776 30.3167 96.4443 31.3667 95.6109 32.7Z" fill="#EEEEEE"/>
</svg>
